<?xml version="1.0" encoding="utf-8"?>
<!-- Generator: Adobe Illustrator 16.0.0, SVG Export Plug-In . SVG Version: 6.00 Build 0)  -->
<!DOCTYPE svg PUBLIC "-//W3C//DTD SVG 1.1//EN" "http://www.w3.org/Graphics/SVG/1.1/DTD/svg11.dtd">
<svg version="1.1" id="图层_1" xmlns="http://www.w3.org/2000/svg" xmlns:xlink="http://www.w3.org/1999/xlink" x="0px" y="0px"
	 width="960px" height="540px" viewBox="0 0 960 540" enable-background="new 0 0 960 540" xml:space="preserve">
<rect fill="none" width="960" height="540"/>
<rect fill="#FFFFFF" width="960" height="540"/>
<g id="组_22">
	<path id="矩形_13" fill="#FFC670" d="M688.481,385.335l38.184,38.184c12.888,12.887,12.888,33.781,0,46.669l0,0
		c-12.887,12.887-33.781,12.887-46.669,0l-38.184-38.184c-12.888-12.888-12.888-33.782,0-46.669l0,0
		C654.7,372.447,675.595,372.447,688.481,385.335z"/>
	<path id="矩形_15" fill="#FFC670" d="M221.633,91.284L324.87,194.521c10.154,10.153,10.154,26.616,0,36.77l0,0
		c-10.153,10.153-26.616,10.153-36.77,0L184.863,128.053c-10.154-10.154-10.154-26.616,0-36.77l0,0
		C195.017,81.13,211.479,81.13,221.633,91.284z"/>
	<path id="矩形_16" fill="#FFC670" d="M309.633,58.284L412.87,161.521c10.154,10.153,10.154,26.616,0,36.77l0,0
		c-10.153,10.153-26.616,10.153-36.77,0L272.863,95.053c-10.154-10.154-10.154-26.616,0-36.77l0,0
		C283.017,48.13,299.479,48.13,309.633,58.284z"/>
	<path id="矩形_14" fill="#FFC670" d="M689.844,291.881l57.275,57.275c7.615,7.615,7.615,19.962,0,27.577l0,0
		c-7.615,7.615-19.962,7.615-27.577,0l-57.275-57.275c-7.615-7.615-7.615-19.962,0-27.577l0,0
		C669.882,284.266,682.229,284.266,689.844,291.881z"/>
	<circle id="椭圆_1" fill="#FFC670" cx="480" cy="270" r="242"/>
</g>
<path fill="#3D3D63" d="M498,455h-98c-2.761,0-5-2.238-5-5s2.239-5,5-5h98c2.762,0,5,2.238,5,5S500.762,455,498,455z"/>
<path fill="#3D3D63" d="M666,479H521c-2.762,0-5-2.238-5-5s2.238-5,5-5h145c2.762,0,5,2.238,5,5S668.762,479,666,479z"/>
<path fill="#3D3D63" d="M361,455h-67c-2.761,0-5-2.238-5-5s2.239-5,5-5h67c2.761,0,5,2.238,5,5S363.761,455,361,455z"/>
<path fill="#3D3D63" d="M541,455h-26c-2.762,0-5-2.238-5-5s2.238-5,5-5h26c2.762,0,5,2.238,5,5S543.762,455,541,455z"/>
<path fill="#3D3D63" d="M381,455c-1.31,0-2.6-0.53-3.53-1.46c-0.94-0.94-1.47-2.221-1.47-3.54c0-1.32,0.53-2.601,1.47-3.54
	c0.92-0.93,2.21-1.46,3.53-1.46c1.32,0,2.6,0.53,3.54,1.46c0.93,0.939,1.46,2.22,1.46,3.54c0,1.319-0.53,2.6-1.46,3.54
	C383.6,454.47,382.31,455,381,455z"/>
<g>
	<path id="路径_49_1_" fill="#FDE174" d="M327.5,256.168l142.639-86.357L632.5,256.168v161.577h-305V256.168z"/>
	<path fill="#3D3D63" d="M632.5,427.745h-305c-5.523,0-10-4.478-10-10V256.168c0-3.499,1.828-6.743,4.821-8.554l142.639-86.357
		c3.014-1.824,6.764-1.928,9.875-0.275l162.362,86.357c3.264,1.736,5.304,5.131,5.304,8.829v161.577
		C642.5,423.268,638.022,427.745,632.5,427.745z M337.5,407.745h285V262.176l-152.042-80.868L337.5,261.804V407.745z"/>
</g>
<g>
	<path id="路径_50_1_" fill="#FFFFFF" d="M583.579,278.484V128.961c0-13.041-10.572-23.613-23.613-23.613H401.033
		c-13.041,0-23.613,10.572-23.613,23.613v151.487L480,328.768L583.579,278.484z"/>
	<path fill="#3D3D63" d="M480.065,339.853L367.42,286.792V128.961c0-18.534,15.079-33.613,33.613-33.613h158.933
		c18.534,0,33.613,15.079,33.613,33.613v155.785L480.065,339.853z M387.42,274.104l92.515,43.578l93.644-45.46V128.961
		c0-7.506-6.106-13.613-13.613-13.613H401.033c-7.506,0-13.613,6.106-13.613,13.613V274.104z"/>
</g>
<path fill="#3D3D63" d="M477.494,337.502c-1.416,0-2.854-0.302-4.223-0.94l-150-70c-5.004-2.336-7.168-8.286-4.833-13.291
	c2.335-5.004,8.287-7.167,13.291-4.833l150,70c5.005,2.335,7.169,8.286,4.833,13.29
	C484.864,335.365,481.259,337.502,477.494,337.502z"/>
<path fill="#3D3D63" d="M484.636,335.889c-3.755,0-7.354-2.125-9.057-5.748c-2.35-4.998-0.203-10.954,4.796-13.304l147.822-69.487
	c5-2.35,10.955-0.203,13.304,4.796c2.35,4.998,0.202,10.955-4.796,13.304l-147.822,69.487
	C487.508,335.583,486.061,335.889,484.636,335.889z"/>
<path fill="#3D3D63" d="M471,159h-51c-4.418,0-8-3.582-8-8s3.582-8,8-8h51c4.418,0,8,3.582,8,8S475.418,159,471,159z"/>
<path fill="#3D3D63" d="M540,255H420c-4.418,0-8-3.582-8-8s3.582-8,8-8h120c4.418,0,8,3.582,8,8S544.418,255,540,255z"/>
<g id="组_20" transform="translate(491.5 407.5) rotate(-90)">
	<g id="组_17" transform="translate(0 82)">
		<rect x="17" y="-4" fill="#F2C01A" width="8" height="42"/>
		<rect x="9" y="-13" fill="#F2C01A" width="8" height="26"/>
	</g>
	<g id="组_18" transform="translate(0 41)">
		<rect x="17" y="-4" fill="#F2C01A" width="8" height="42"/>
		<rect x="9" y="-13" fill="#F2C01A" width="8" height="26"/>
	</g>
	<g id="组_19">
		<rect x="17" y="-4" fill="#F2C01A" width="8" height="42"/>
		<rect x="9" y="-13" fill="#F2C01A" width="8" height="26"/>
	</g>
</g>
<g id="组_21" transform="translate(369.5 407.5) rotate(-90)">
	<g id="组_17-2" transform="translate(0 82)">
		<rect x="17" y="-4" fill="#F2C01A" width="8" height="42"/>
		<rect x="9" y="-13" fill="#F2C01A" width="8" height="26"/>
	</g>
	<g id="组_18-2" transform="translate(0 41)">
		<rect x="17" y="-4" fill="#F2C01A" width="8" height="42"/>
		<rect x="9" y="-13" fill="#F2C01A" width="8" height="26"/>
	</g>
	<g id="组_19-2">
		<rect x="17" y="-4" fill="#F2C01A" width="8" height="42"/>
		<rect x="9" y="-13" fill="#F2C01A" width="8" height="26"/>
	</g>
</g>
<path fill="#3D3D63" d="M358.008,403.002c-3.597,0-7.072-1.945-8.861-5.351c-2.569-4.889-0.688-10.935,4.201-13.504l59-31
	c4.889-2.566,10.936-0.688,13.504,4.201c2.569,4.889,0.688,10.935-4.201,13.504l-59,31
	C361.167,402.632,359.576,403.002,358.008,403.002z"/>
<path fill="#3D3D63" d="M601.991,403.002c-1.567,0-3.158-0.37-4.643-1.149l-59-31c-4.889-2.569-6.77-8.615-4.201-13.504
	c2.569-4.888,8.614-6.769,13.504-4.201l59,31c4.889,2.569,6.77,8.615,4.201,13.504C609.063,401.056,605.588,403.002,601.991,403.002
	z"/>
<g id="组_39" transform="translate(0 10)">
	<path fill="#3D3D63" d="M540,185h-72c-4.418,0-8-3.582-8-8s3.582-8,8-8h72c4.418,0,8,3.582,8,8S544.418,185,540,185z"/>
	<path fill="#3D3D63" d="M446,185h-26c-4.418,0-8-3.582-8-8s3.582-8,8-8h26c4.418,0,8,3.582,8,8S450.418,185,446,185z"/>
</g>
<g id="组_38" transform="translate(0 10)">
	<path fill="#3D3D63" d="M540,215h-29c-4.418,0-8-3.582-8-8s3.582-8,8-8h29c4.418,0,8,3.582,8,8S544.418,215,540,215z"/>
	<path fill="#3D3D63" d="M490,215h-70c-4.418,0-8-3.582-8-8s3.582-8,8-8h70c4.418,0,8,3.582,8,8S494.418,215,490,215z"/>
</g>
<path id="路径_52" fill="#CBD1D9" d="M480,301.324l62.731-14.111L480,317.716L412.659,286L480,301.324z"/>
<path id="路径_53" fill="#F2D053" d="M480,339.324l142.448-67.163L480,355.716L337.571,273.2L480,339.324z"/>
<g id="椭圆_9" transform="translate(183 395)">
	<circle fill="none" cx="27.5" cy="27.5" r="27.5"/>
	<path fill="#FFC670" d="M27.5,55C12.336,55,0,42.663,0,27.5S12.336,0,27.5,0S55,12.337,55,27.5S42.664,55,27.5,55z M27.5,4
		C14.542,4,4,14.542,4,27.5S14.542,51,27.5,51S51,40.458,51,27.5S40.458,4,27.5,4z"/>
</g>
<path fill="#FFFFFF" d="M672,357.9c-0.512,0-1.023-0.195-1.414-0.586l-9.899-9.899c-0.781-0.781-0.781-2.047,0-2.828l9.899-9.9
	c0.75-0.75,2.078-0.75,2.828,0l9.899,9.9c0.781,0.781,0.781,2.047,0,2.828l-9.899,9.899C673.023,357.705,672.512,357.9,672,357.9z
	 M664.929,346.001l7.071,7.071l7.071-7.071L672,338.929L664.929,346.001z"/>
<g id="椭圆_14" transform="translate(672 256)">
	<circle fill="none" cx="15" cy="15" r="15"/>
	<path fill="#FFFFFF" d="M15,30C6.729,30,0,23.271,0,15C0,6.729,6.729,0,15,0s15,6.729,15,15C30,23.271,23.271,30,15,30z M15,4
		C8.935,4,4,8.935,4,15s4.935,11,11,11s11-4.935,11-11S21.065,4,15,4z"/>
</g>
<path fill="#FFC670" d="M771.213,230.213L771.213,230.213c-0.53,0-1.039-0.211-1.414-0.586l-21.213-21.213
	c-0.781-0.781-0.781-2.047,0-2.828l21.213-21.213c0.781-0.781,2.047-0.781,2.828,0l21.214,21.213
	c0.375,0.375,0.586,0.884,0.586,1.414s-0.211,1.039-0.586,1.414l-21.214,21.213C772.252,230.002,771.743,230.213,771.213,230.213z
	 M752.828,207l18.385,18.385L789.599,207l-18.386-18.384L752.828,207z"/>
<g id="椭圆_12" transform="translate(420 70)">
	<circle fill="none" cx="9.5" cy="9.5" r="9.5"/>
	<path fill="#FFFFFF" d="M9.5,19C4.262,19,0,14.738,0,9.5S4.262,0,9.5,0S19,4.262,19,9.5S14.738,19,9.5,19z M9.5,4
		C6.467,4,4,6.467,4,9.5S6.467,15,9.5,15S15,12.533,15,9.5S12.533,4,9.5,4z"/>
</g>
<path fill="#FFFFFF" d="M513,58.9c-0.512,0-1.023-0.195-1.414-0.586l-9.899-9.899c-0.781-0.781-0.781-2.047,0-2.828l9.899-9.899
	c0.781-0.781,2.047-0.781,2.828,0l9.899,9.899c0.781,0.781,0.781,2.047,0,2.828l-9.899,9.899C514.023,58.705,513.512,58.9,513,58.9z
	 M505.929,47L513,54.071L520.071,47L513,39.93L505.929,47z"/>
<g id="椭圆_13" transform="translate(667 59)">
	<circle fill="none" cx="15" cy="15" r="15"/>
	<path fill="#FFC670" d="M15,30C6.729,30,0,23.271,0,15S6.729,0,15,0s15,6.729,15,15S23.271,30,15,30z M15,4C8.935,4,4,8.935,4,15
		s4.935,11,11,11s11-4.935,11-11S21.065,4,15,4z"/>
</g>
<g id="椭圆_15" transform="translate(329 41)">
	<circle fill="none" cx="9" cy="9" r="9"/>
	<path fill="#FFC670" d="M9,18c-4.962,0-9-4.038-9-9s4.038-9,9-9s9,4.038,9,9S13.962,18,9,18z M9,4C6.243,4,4,6.243,4,9s2.243,5,5,5
		s5-2.243,5-5S11.757,4,9,4z"/>
</g>
<path fill="#FFC670" d="M220.101,226.9c-0.512,0-1.024-0.195-1.414-0.586l-9.899-9.899c-0.781-0.781-0.781-2.047,0-2.828
	l9.899-9.899c0.78-0.781,2.048-0.781,2.828,0l9.899,9.899c0.781,0.781,0.781,2.047,0,2.828l-9.899,9.899
	C221.125,226.705,220.613,226.9,220.101,226.9z M213.03,215l7.071,7.071l7.071-7.071l-7.071-7.071L213.03,215z"/>
<g id="椭圆_10" transform="translate(194 97)">
	<circle fill="none" cx="13.5" cy="13.5" r="13.5"/>
	<path fill="#FFFFFF" d="M13.5,27C6.056,27,0,20.944,0,13.5S6.056,0,13.5,0S27,6.056,27,13.5S20.944,27,13.5,27z M13.5,4
		C8.262,4,4,8.262,4,13.5S8.262,23,13.5,23s9.5-4.262,9.5-9.5S18.738,4,13.5,4z"/>
</g>
</svg>
