<?xml version="1.0" encoding="UTF-8"?>
<svg width="250px" height="157px" viewBox="0 0 250 157" version="1.1" xmlns="http://www.w3.org/2000/svg" xmlns:xlink="http://www.w3.org/1999/xlink">
    <title>Illustration/被劫持</title>
    <defs>
        <linearGradient x1="50%" y1="100%" x2="50%" y2="0%" id="linearGradient-1">
            <stop stop-color="#F5F7FA" stop-opacity="0" offset="0%"></stop>
            <stop stop-color="#D9DEE4" offset="100%"></stop>
        </linearGradient>
        <linearGradient x1="50%" y1="50%" x2="50%" y2="0%" id="linearGradient-2">
            <stop stop-color="#F5F7FA" stop-opacity="0" offset="0%"></stop>
            <stop stop-color="#D9DEE4" offset="100%"></stop>
        </linearGradient>
        <linearGradient x1="50%" y1="50%" x2="50%" y2="0%" id="linearGradient-3">
            <stop stop-color="#F5F7FA" stop-opacity="0" offset="0%"></stop>
            <stop stop-color="#D9DEE4" offset="100%"></stop>
        </linearGradient>
        <linearGradient x1="70.998387%" y1="56.749425%" x2="0%" y2="56.749425%" id="linearGradient-4">
            <stop stop-color="#D9DEE4" offset="0%"></stop>
            <stop stop-color="#F5F7FA" offset="100%"></stop>
        </linearGradient>
        <filter x="-13.8%" y="-41.6%" width="127.5%" height="183.1%" filterUnits="objectBoundingBox" id="filter-5">
            <feGaussianBlur stdDeviation="0.654999971" in="SourceGraphic"></feGaussianBlur>
        </filter>
        <linearGradient x1="70.998387%" y1="56.749425%" x2="0%" y2="56.749425%" id="linearGradient-6">
            <stop stop-color="#D9DEE4" offset="0%"></stop>
            <stop stop-color="#F5F7FA" offset="100%"></stop>
        </linearGradient>
        <filter x="-13.8%" y="-41.6%" width="127.5%" height="183.1%" filterUnits="objectBoundingBox" id="filter-7">
            <feGaussianBlur stdDeviation="0.445399985" in="SourceGraphic"></feGaussianBlur>
        </filter>
        <filter x="-13.8%" y="-41.6%" width="127.5%" height="183.1%" filterUnits="objectBoundingBox" id="filter-8">
            <feGaussianBlur stdDeviation="0.445399985" in="SourceGraphic"></feGaussianBlur>
        </filter>
        <linearGradient x1="100%" y1="37.0136636%" x2="0%" y2="37.0136636%" id="linearGradient-9">
            <stop stop-color="#D9DEE4" offset="0%"></stop>
            <stop stop-color="#F5F7FA" offset="100%"></stop>
        </linearGradient>
        <linearGradient x1="50%" y1="100%" x2="50%" y2="0%" id="linearGradient-10">
            <stop stop-color="#D9DEE4" offset="0%"></stop>
            <stop stop-color="#F5F7FA" offset="100%"></stop>
        </linearGradient>
        <linearGradient x1="50%" y1="100%" x2="50%" y2="0%" id="linearGradient-11">
            <stop stop-color="#D9DEE4" offset="0%"></stop>
            <stop stop-color="#F5F7FA" offset="100%"></stop>
        </linearGradient>
        <linearGradient x1="50%" y1="100%" x2="50%" y2="0%" id="linearGradient-12">
            <stop stop-color="#F5F7FA" offset="0%"></stop>
            <stop stop-color="#D9DEE4" offset="100%"></stop>
        </linearGradient>
        <linearGradient x1="50%" y1="100%" x2="50%" y2="0%" id="linearGradient-13">
            <stop stop-color="#D9DEE4" offset="0%"></stop>
            <stop stop-color="#F5F7FA" offset="100%"></stop>
        </linearGradient>
        <linearGradient x1="50%" y1="100%" x2="50%" y2="0%" id="linearGradient-14">
            <stop stop-color="#F5F7FA" stop-opacity="0" offset="0%"></stop>
            <stop stop-color="#D9DEE4" offset="100%"></stop>
        </linearGradient>
        <filter x="-41.4%" y="-150.0%" width="182.8%" height="400.0%" filterUnits="objectBoundingBox" id="filter-15">
            <feGaussianBlur stdDeviation="1.79999995" in="SourceGraphic"></feGaussianBlur>
        </filter>
        <linearGradient x1="50%" y1="0%" x2="50%" y2="100%" id="linearGradient-16">
            <stop stop-color="#5186F0" offset="0%"></stop>
            <stop stop-color="#515FF0" offset="100%"></stop>
        </linearGradient>
        <linearGradient x1="50%" y1="0%" x2="50%" y2="100%" id="linearGradient-17">
            <stop stop-color="#5186F0" offset="0%"></stop>
            <stop stop-color="#515FF0" offset="100%"></stop>
        </linearGradient>
    </defs>
    <g id="Illustration/被劫持" stroke="none" stroke-width="1" fill="none" fill-rule="evenodd">
        <g id="编组-7">
            <path d="M249.960386,156.004844 C228.181855,108.766797 180.410001,75.9799967 124.980379,75.9799967 C69.5504419,75.9799967 21.7783595,108.76717 4.26325641e-13,156.00565" id="路径" fill="url(#linearGradient-1)"></path>
            <path d="M59.9046433,20.3049991 C63.9814796,20.3049991 67.6250742,22.1525793 70.0374893,25.0529631 C70.5667096,24.9535772 71.1134044,24.9014901 71.6723132,24.9014901 C76.5147834,24.9014901 80.440381,28.8115365 80.440381,33.6348231 C80.440381,38.4581097 76.5147834,42.368156 71.6723132,42.368156 C70.9940543,42.368156 70.3337826,42.2914483 69.6997656,42.1462675 C67.292485,44.8217829 63.7959139,46.504998 59.9046433,46.504998 C56.0521641,46.504998 52.5865544,44.855175 50.1811317,42.2261795 C49.6682825,42.3194202 49.1390806,42.368156 48.5984506,42.368156 C43.7559805,42.368156 39.8303828,38.4581097 39.8303828,33.6348231 C39.8303828,28.8115365 43.7559805,24.9014901 48.5984506,24.9014901 C49.0153109,24.9014901 49.4253768,24.9304655 49.8267288,24.9865045 C52.2402622,22.12428 55.8591498,20.3049991 59.9046433,20.3049991 Z" id="形状结合" fill="url(#linearGradient-2)"></path>
            <path d="M184.618871,0 C189.813667,0 194.456405,2.35577181 197.530287,6.05390611 C198.204705,5.92690862 198.901154,5.86052606 199.61316,5.86052606 C205.783404,5.86052606 210.785375,10.8458352 210.785375,16.9955256 C210.785375,23.145216 205.783404,28.1305251 199.61316,28.1305251 C198.749148,28.1305251 197.908043,28.0327727 197.100372,27.8477592 C194.032473,31.2588694 189.577137,33.4049985 184.618871,33.4049985 C179.710396,33.4049985 175.294801,31.3017564 172.229852,27.9501793 C171.575543,28.0684075 170.901346,28.1305251 170.212593,28.1305251 C164.042349,28.1305251 159.040378,23.145216 159.040378,16.9955256 C159.040378,10.8458352 164.042349,5.86052606 170.212593,5.86052606 C170.744171,5.86052606 171.267077,5.89752766 171.778861,5.96908766 C174.85263,2.31975205 179.463941,0 184.618871,0 Z" id="形状结合备份" fill="url(#linearGradient-3)"></path>
            <g id="编组-6" transform="translate(57.515382, 71.394997)">
                <polygon id="Fill-3" fill="#C2C6CC" points="10.4799995 34.0599985 13.0999994 34.0599985 13.0999994 13.0999994 10.4799995 13.0999994"></polygon>
                <path d="M19.6499991,18.363055 C19.6499991,24.5917615 16.1308991,26.1999989 11.789898,26.1999989 C7.44889695,26.1999989 3.92999983,24.5917615 3.92999983,18.363055 C3.92999983,12.1343485 7.44889695,0 11.789898,0 C16.1308991,0 19.6499991,12.1343485 19.6499991,18.363055" id="Fill-1" fill="url(#linearGradient-4)"></path>
                <polygon id="路径-20" fill="#C2C6CC" filter="url(#filter-5)" points="14.2791425 33.4049985 1.48325796e-13 38.1336143 11.6591426 33.4049985"></polygon>
            </g>
            <g id="编组-5" transform="translate(39.175383, 96.939996)">
                <polygon id="Fill-3" fill="#C2C6CB" points="7.12639976 23.1607992 8.9079997 23.1607992 8.9079997 8.9079997 7.12639976 8.9079997"></polygon>
                <path d="M13.3619996,12.4868775 C13.3619996,16.722398 10.9690115,17.8159994 8.01713075,17.8159994 C5.06524998,17.8159994 2.67239991,16.722398 2.67239991,12.4868775 C2.67239991,8.25135708 5.06524998,5.5067062e-14 8.01713075,5.5067062e-14 C10.9690115,5.5067062e-14 13.3619996,8.25135708 13.3619996,12.4868775" id="Fill-1" fill="url(#linearGradient-6)"></path>
                <polygon id="路径-20" fill="#C2C6CB" filter="url(#filter-7)" points="9.70981702 22.7153992 -3.66817687e-13 25.930858 7.92821708 22.7153992"></polygon>
            </g>
            <g id="编组-3" transform="translate(186.930385, 97.500000) scale(-1, 1) translate(-186.930385, -97.500000) translate(179.930385, 82.500000)">
                <polygon id="Fill-3" fill="#C2C6CB" points="7.55859088 26.4657955 9.34019082 26.4657955 9.34019082 12.212996 7.55859088 12.212996"></polygon>
                <path d="M13.6895996,12.4868775 C13.6895996,16.722398 11.2966116,17.8159994 8.34473084,17.8159994 C5.39285007,17.8159994 3,16.722398 3,12.4868775 C3,8.25135708 5.39285007,5.86197757e-14 8.34473084,5.86197757e-14 C11.2966116,5.86197757e-14 13.6895996,8.25135708 13.6895996,12.4868775" id="Fill-1" fill="url(#linearGradient-6)"></path>
                <polygon id="路径-20" fill="#C2C6CB" filter="url(#filter-8)" points="9.70981702 26.5 9.05941988e-14 29.7154587 7.92821708 26.5"></polygon>
            </g>
        </g>
        <g id="编组-8" transform="translate(90.000000, 0.500000)">
            <g id="编组-9" transform="translate(0.430385, 0.000000)">
                <g id="编组-4">
                    <polygon id="Fill-13" fill="url(#linearGradient-9)" points="33.5 11 35.5 11 35.5 3 33.5 3"></polygon>
                    <path d="M10.5,31.5416923 C10.5,44.8194359 58.5,44.8194359 58.5,31.5416923 L58.5,31.5416923 C58.5,18.263811 47.7548571,7.5 34.5,7.5 L34.5,7.5 C21.2451429,7.5 10.5,18.263811 10.5,31.5416923" id="Fill-1" fill="url(#linearGradient-10)"></path>
                    <path d="M0,34.6134991 C0,41.458072 15.4125639,47.0064988 34.4249991,47.0064988 L34.4249991,47.0064988 C53.4374344,47.0064988 68.8499983,41.458072 68.8499983,34.6134991 L68.8499983,34.6134991 C68.8499983,27.7690609 53.4374344,22.2204994 34.4249991,22.2204994 L34.4249991,22.2204994 C15.4125639,22.2204994 0,27.7690609 0,34.6134991" id="Fill-3" fill="url(#linearGradient-11)"></path>
                    <path d="M13.7699997,39.432999 C13.7699997,43.6157348 23.1716244,47.0064988 34.7692491,47.0064988 L34.7692491,47.0064988 C46.3668738,47.0064988 55.7684986,43.6157348 55.7684986,39.432999 L55.7684986,39.432999 C55.7684986,35.2503985 46.3668738,31.8594992 34.7692491,31.8594992 L34.7692491,31.8594992 C23.1716244,31.8594992 13.7699997,35.2503985 13.7699997,39.432999" id="Fill-5" fill="url(#linearGradient-12)"></path>
                    <path d="M18.8404166,26.0519162 L18.9763744,26.0601933 C19.6680033,26.1425734 20.5278513,26.8340115 21.1339284,27.8707306 L21.1339284,27.8707306 L21.232939,28.0475086 C21.928537,29.3457077 21.9529839,30.6695903 21.266771,31.0606926 L21.266771,31.0606926 L21.1704063,31.1074657 C20.4438355,31.4023351 19.2919757,30.6460628 18.5353151,29.3521788 L18.5353151,29.3521788 L18.4363045,29.1754016 C17.7407067,27.8772129 17.7162656,26.5534479 18.4026089,26.1622168 C18.5335421,26.087471 18.6815238,26.0519162 18.8404166,26.0519162 L18.8404166,26.0519162 Z M50.6980817,26.0519162 L50.8151096,26.0586396 C50.9298998,26.0721431 51.0376895,26.1061574 51.1358893,26.1622168 L51.1358893,26.1622168 L51.2250796,26.2212567 C51.8468881,26.6952841 51.7597133,28.0582948 51.0031832,29.3521788 L51.0031832,29.3521788 L50.8976296,29.525237 C50.1067371,30.7691862 48.9579402,31.4521814 48.2717273,31.0606926 L48.2717273,31.0606926 L48.182554,31.0016688 C47.5608649,30.5277486 47.6480397,29.1646146 48.4045699,27.8707306 C49.0510521,26.7648969 49.9862692,26.0519162 50.6980817,26.0519162 L50.6980817,26.0519162 Z M34.7692491,24.9744994 L34.8719651,24.9810248 C35.6526203,25.0805431 36.2695245,26.3059453 36.2695245,27.8027187 L36.2695245,27.8027187 L36.2660632,27.9963562 C36.213276,29.468025 35.5632869,30.630938 34.7692491,30.630938 L34.7692491,30.630938 L34.6665331,30.6244132 C33.885878,30.524905 33.2689738,29.2996211 33.2689738,27.8027187 C33.2689738,26.2408682 33.940688,24.9744994 34.7692491,24.9744994 L34.7692491,24.9744994 Z" id="形状结合" fill="#C2C6CC" opacity="0.300000012"></path>
                    <path d="M34.5,0 C33.1193421,0 32,1.11934211 32,2.5 L32,2.5 C32,3.88065789 33.1193421,5 34.5,5 L34.5,5 C35.8806579,5 37,3.88065789 37,2.5 L37,2.5 C37,1.11934211 35.8806579,0 34.5,0 Z" id="Fill-15" fill="url(#linearGradient-13)"></path>
                </g>
                <g id="编组-5" transform="translate(18.449865, 82.749818)">
                    <polygon id="Fill-29" fill="#D6DBE0" points="0.000134999996 1.83194995 1.93648495 3.29084991 3.7747349 1.45934996 1.83838495 2.2981616e-14"></polygon>
                    <polygon id="Fill-30" fill="#C2C7CC" points="3.7745549 1.45921496 4.23760489 3.02656492 2.39935494 4.85851487 1.93630495 3.29071491"></polygon>
                    <polygon id="Fill-31" fill="#D1D5DB" points="0.463049988 3.39929991 2.39939994 4.85864987 1.93634995 3.29084991 7.53397325e-14 1.83194995"></polygon>
                </g>
                <g id="编组-7" transform="translate(50.401169, 72.401483)">
                    <polygon id="Fill-32" fill="#D6DBE0" points="3.7719449 1.45889996 1.93639495 3.28769991 4.49999988e-05 1.82879995 1.83604495 1.11910478e-13"></polygon>
                    <polygon id="Fill-33" fill="#C2C7CC" points="1.93639495 3.28769991 2.39944494 4.85594987 4.23499489 3.02669992 3.7719449 1.45889996"></polygon>
                    <polygon id="Fill-34" fill="#D1D5DB" points="1.93634995 3.28787991 2.39939994 4.85567987 0.463499988 3.39632991 7.67386134e-14 1.82897995"></polygon>
                </g>
                <g id="编组-6" transform="translate(34.650719, 53.050089)">
                    <polygon id="Fill-35" fill="#D6DBE0" points="1.83838495 -2.23820956e-14 0.000134999996 1.83194995 1.93648495 3.29039991 3.7747349 1.45889996"></polygon>
                    <polygon id="Fill-36" fill="#C2C7CC" points="3.7748249 1.45894496 4.23787489 3.02629492 2.39917494 4.85824487 1.93657495 3.29044491"></polygon>
                    <polygon id="Fill-37" fill="#D1D5DB" points="1.93634995 3.29062491 2.39939994 4.85797487 0.463499988 3.39907491 -1.2949641e-13 1.83172495"></polygon>
                </g>
                <path d="M34.7692491,31.8594992 L35.1874715,31.8609713 C45.9511573,31.9368071 54.730095,34.9335665 55.682793,38.7441187 L55.6849785,38.744499 L67.1534983,82.7499978 L2.38499995,82.7499978 L13.855705,38.744499 C14.8207133,34.8843294 23.8155173,31.8594992 34.7692491,31.8594992 L34.7692491,31.8594992 Z" id="形状结合" fill="url(#linearGradient-14)"></path>
            </g>
        </g>
        <ellipse id="椭圆形" fill="#B5BDC7" opacity="0.5" filter="url(#filter-15)" cx="131.155384" cy="92.6999975" rx="6.52499983" ry="1.79999995"></ellipse>
        <g id="编组" transform="translate(107.930385, 63.000000)">
            <path d="M7.3973,3.54505 C7.5103,3.47405 7.7288,3.52455 7.8808,3.65605 C8.0363,3.79005 8.0688,3.95655 7.9558,4.02755 L6.7908,4.75555 C6.6753,4.82705 6.4593,4.77555 6.3038,4.64155 C6.1518,4.51055 6.1168,4.34505 6.2318,4.27305 L7.3973,3.54505 Z" id="Fill-1" fill="#E1E3E8"></path>
            <path d="M5.6187,4.65635 C5.7342,4.58385 5.9527,4.63435 6.1052,4.76585 C6.2602,4.89985 6.2927,5.06635 6.1777,5.13835 C6.0647,5.20885 5.8457,5.15885 5.6907,5.02435 C5.5382,4.89385 5.5057,4.72685 5.6187,4.65635" id="Fill-3" fill="#E1E3E8"></path>
            <path d="M31.88555,19.11045 L11.31505,1.35245 C10.90805,1.00145 10.33555,0.87195 10.03405,1.06095 L1.85805,6.16995 C1.55605,6.35845 1.64055,6.79245 2.04755,7.14345 L22.61805,24.90145 C23.02455,25.25245 23.59805,25.38645 23.90005,25.19745 L32.07555,20.08895 C32.37755,19.89995 32.29205,19.46145 31.88555,19.11045 L31.88555,19.11045 Z M9.84705,0.08545 C10.14605,-0.10155 10.71905,0.02795 11.12555,0.37895 L33.16705,19.40695 C33.57105,19.75495 33.65605,20.19345 33.35655,20.38045 L24.08905,26.17145 C23.78755,26.35995 23.21405,26.22595 22.81105,25.87795 L0.76905,6.84995 C0.36205,6.49895 0.27805,6.06495 0.57955,5.87645 L9.84705,0.08545 Z" id="Fill-9" fill="url(#linearGradient-16)"></path>
            <path d="M16.0804,11.5553 C16.0949,11.5498 16.1079,11.5433 16.1199,11.5358 C16.2499,11.4543 16.2364,11.2713 16.0754,11.1058 C15.8999,10.9248 15.6174,10.8313 15.4464,10.8988 C15.4324,10.9043 15.4189,10.9108 15.4069,10.9188 C15.2769,11.0003 15.2904,11.1828 15.4514,11.3483 C15.6269,11.5288 15.9059,11.6203 16.0804,11.5553" id="Fill-11" fill="#F5F5F5"></path>
            <path d="M10.0339,1.0608 C10.3354,0.8723 10.9084,1.0018 11.3149,1.3528 L11.3149,1.3528 L31.8854,19.1103 C32.2924,19.4618 32.3774,19.8998 32.0759,20.0888 L32.0759,20.0888 L23.8999,25.1973 C23.5984,25.3858 23.0249,25.2528 22.6179,24.9013 L22.6179,24.9013 L2.0474,7.1438 C1.6409,6.7928 1.5564,6.3583 1.8579,6.1698 L1.8579,6.1698 Z M6.1049,4.7658 C5.9529,4.6343 5.7339,4.5843 5.6189,4.6563 C5.5059,4.7268 5.5384,4.8938 5.6904,5.0243 C5.8459,5.1588 6.0649,5.2093 6.1774,5.1388 C6.2929,5.0663 6.2604,4.8993 6.1049,4.7658 Z M7.8809,3.6558 C7.7289,3.5243 7.5099,3.4743 7.3974,3.5448 L7.3974,3.5448 L6.2319,4.2733 C6.1169,4.3448 6.1519,4.5103 6.3039,4.6418 C6.4589,4.7753 6.6754,4.8273 6.7909,4.7553 L6.7909,4.7553 L7.9559,4.0273 C8.0689,3.9568 8.0364,3.7903 7.8809,3.6558 Z" id="形状结合" fill="#F5F5F5"></path>
            <path d="M33.4871,20.2511 L33.0821,20.9461 C33.0721,20.9556 33.0671,20.9661 33.0571,20.9806 C33.0321,21.0156 32.9971,21.0461 32.9571,21.0711 L32.9521,21.0756 L23.6871,26.8656 C23.6471,26.8906 23.6021,26.9061 23.5571,26.9211 C23.5521,26.9261 23.5421,26.9261 23.5371,26.9261 C23.4921,26.9356 23.4421,26.9461 23.3871,26.9461 C23.3821,26.9506 23.3771,26.9506 23.3721,26.9506 C23.3521,26.9506 23.3321,26.9461 23.3171,26.9461 C23.2871,26.9461 23.2571,26.9461 23.2271,26.9406 C23.1971,26.9406 23.1721,26.9356 23.1471,26.9306 C23.1121,26.9261 23.0821,26.9211 23.0521,26.9106 C23.0221,26.9011 22.9971,26.8956 22.9671,26.8861 C22.9371,26.8761 22.9021,26.8656 22.8721,26.8506 C22.8421,26.8411 22.8171,26.8306 22.7871,26.8156 C22.7571,26.8011 22.7271,26.7856 22.6971,26.7706 C22.6821,26.7611 22.6721,26.7561 22.6571,26.7511 C22.6471,26.7406 22.6321,26.7361 22.6221,26.7256 C22.5821,26.7006 22.5371,26.6711 22.4971,26.6406 C22.4821,26.6311 22.4671,26.6261 22.4571,26.6111 C22.4371,26.6006 22.4221,26.5861 22.4071,26.5711 L0.3671,7.5461 C0.3271,7.5111 0.2921,7.4806 0.2621,7.4461 C0.2321,7.4156 0.2121,7.3861 0.1871,7.3556 C0.1771,7.3411 0.1621,7.3256 0.1471,7.3056 C0.1421,7.3011 0.1371,7.2906 0.1321,7.2856 C0.0921,7.2256 0.0621,7.1656 0.0371,7.1111 C0.0321,7.0956 0.0321,7.0861 0.0271,7.0711 C0.0121,7.0156 0.0021,6.9661 0.0021,6.9156 C0.0021,6.9011 -0.0029,6.8811 0.0021,6.8656 C0.0021,6.8056 0.0171,6.7511 0.0471,6.7006 L0.4471,6.0111 C0.4221,6.0556 0.4071,6.1156 0.4021,6.1711 L0.4021,6.2206 C0.4071,6.2706 0.4171,6.3256 0.4321,6.3761 C0.4371,6.3906 0.4371,6.4011 0.4421,6.4156 C0.4671,6.4806 0.5071,6.5461 0.5521,6.6111 C0.5621,6.6311 0.5771,6.6456 0.5921,6.6606 C0.6421,6.7256 0.6971,6.7906 0.7671,6.8506 L22.8121,25.8761 C22.8421,25.9011 22.8721,25.9261 22.9021,25.9461 C22.9421,25.9756 22.9821,26.0061 23.0271,26.0311 C23.0521,26.0461 23.0771,26.0606 23.0971,26.0756 C23.1321,26.0911 23.1621,26.1056 23.1921,26.1206 C23.2221,26.1361 23.2471,26.1456 23.2771,26.1561 C23.3071,26.1711 23.3421,26.1806 23.3721,26.1906 C23.3971,26.2006 23.4271,26.2111 23.4571,26.2161 C23.4871,26.2256 23.5171,26.2306 23.5471,26.2361 C23.5771,26.2406 23.6021,26.2456 23.6321,26.2511 C23.6621,26.2511 23.6871,26.2511 23.7171,26.2561 L23.7921,26.2561 C23.8471,26.2511 23.8971,26.2456 23.9421,26.2306 C23.9471,26.2306 23.9571,26.2306 23.9621,26.2256 C24.0071,26.2161 24.0521,26.1961 24.0871,26.1711 L33.3571,20.3811 C33.4121,20.3456 33.4571,20.3011 33.4871,20.2511" id="Fill-17" fill="url(#linearGradient-17)"></path>
        </g>
    </g>
</svg>