<?xml version="1.0" encoding="utf-8"?>
<!-- Generator: Adobe Illustrator 16.0.0, SVG Export Plug-In . SVG Version: 6.00 Build 0)  -->
<!DOCTYPE svg PUBLIC "-//W3C//DTD SVG 1.1//EN" "http://www.w3.org/Graphics/SVG/1.1/DTD/svg11.dtd">
<svg version="1.1" id="图层_1" xmlns="http://www.w3.org/2000/svg" xmlns:xlink="http://www.w3.org/1999/xlink" x="0px" y="0px"
	 width="960px" height="540px" viewBox="0 0 960 540" enable-background="new 0 0 960 540" xml:space="preserve">
<rect fill="none" width="960" height="540"/>
<rect fill="#FFFFFF" width="960" height="540"/>
<g id="组_51">
	<path id="矩形_13" fill="#FFC670" d="M688.481,385.335l38.184,38.184c12.888,12.887,12.888,33.781,0,46.669l0,0
		c-12.887,12.887-33.781,12.887-46.669,0l-38.184-38.184c-12.888-12.888-12.888-33.782,0-46.669l0,0
		C654.7,372.447,675.595,372.447,688.481,385.335z"/>
	<path id="矩形_15" fill="#FFC670" d="M221.633,91.284L324.87,194.521c10.154,10.153,10.154,26.616,0,36.77l0,0
		c-10.153,10.153-26.616,10.153-36.77,0L184.863,128.053c-10.154-10.154-10.154-26.616,0-36.77l0,0
		C195.017,81.13,211.479,81.13,221.633,91.284z"/>
	<path id="矩形_16" fill="#FFC670" d="M309.633,58.284L412.87,161.521c10.154,10.153,10.154,26.616,0,36.77l0,0
		c-10.153,10.153-26.616,10.153-36.77,0L272.863,95.053c-10.154-10.154-10.154-26.616,0-36.77l0,0
		C283.017,48.13,299.479,48.13,309.633,58.284z"/>
	<path id="矩形_14" fill="#FFC670" d="M689.844,291.881l57.275,57.275c7.615,7.615,7.615,19.962,0,27.577l0,0
		c-7.615,7.615-19.962,7.615-27.577,0l-57.275-57.275c-7.615-7.615-7.615-19.962,0-27.577l0,0
		C669.882,284.266,682.229,284.266,689.844,291.881z"/>
	<circle id="椭圆_1" fill="#FFC670" cx="480" cy="270" r="242"/>
</g>
<g id="组_60">
	<path fill="#3D3D63" d="M556,463h-98c-2.761,0-5-2.238-5-5s2.239-5,5-5h98c2.762,0,5,2.238,5,5S558.762,463,556,463z"/>
	<path fill="#3D3D63" d="M589,487H480c-2.761,0-5-2.238-5-5s2.239-5,5-5h109c2.762,0,5,2.238,5,5S591.762,487,589,487z"/>
	<path fill="#3D3D63" d="M403,463h-67c-2.761,0-5-2.238-5-5s2.239-5,5-5h67c2.761,0,5,2.238,5,5S405.761,463,403,463z"/>
	<path fill="#3D3D63" d="M701,487h-56c-2.762,0-5-2.238-5-5s2.238-5,5-5h56c2.762,0,5,2.238,5,5S703.762,487,701,487z"/>
	<path fill="#3D3D63" d="M439,487H283c-2.761,0-5-2.238-5-5s2.239-5,5-5h156c2.761,0,5,2.238,5,5S441.761,487,439,487z"/>
	<path fill="#3D3D63" d="M431,463c-1.32,0-2.6-0.53-3.54-1.47c-0.93-0.931-1.46-2.211-1.46-3.53c0-1.32,0.53-2.601,1.46-3.54
		c0.93-0.93,2.22-1.46,3.54-1.46c1.32,0,2.61,0.53,3.54,1.46c0.93,0.939,1.46,2.22,1.46,3.54c0,1.319-0.53,2.6-1.46,3.53
		C433.61,462.47,432.32,463,431,463z"/>
	<path fill="#3D3D63" d="M621,487c-1.311,0-2.601-0.53-3.54-1.47c-0.93-0.931-1.46-2.211-1.46-3.53c0-1.32,0.53-2.601,1.46-3.54
		c0.93-0.93,2.22-1.46,3.54-1.46c1.319,0,2.609,0.53,3.54,1.46c0.93,0.939,1.46,2.229,1.46,3.54c0,1.319-0.53,2.6-1.46,3.53
		C623.6,486.47,622.31,487,621,487z"/>
</g>
<path fill="#FFC670" d="M802,312.213c-0.512,0-1.023-0.195-1.414-0.586l-21.213-21.213c-0.781-0.781-0.781-2.047,0-2.828
	l21.213-21.213c0.781-0.781,2.047-0.781,2.828,0l21.213,21.213c0.781,0.781,0.781,2.047,0,2.828l-21.213,21.213
	C803.023,312.018,802.512,312.213,802,312.213z M783.615,289L802,307.385L820.385,289L802,270.615L783.615,289z"/>
<path fill="#FFC670" d="M228.101,218.9c-0.512,0-1.024-0.195-1.414-0.586l-9.899-9.899c-0.781-0.781-0.781-2.047,0-2.828
	l9.899-9.899c0.78-0.781,2.048-0.781,2.828,0l9.899,9.899c0.781,0.781,0.781,2.047,0,2.828l-9.899,9.899
	C229.125,218.705,228.613,218.9,228.101,218.9z M221.03,207l7.071,7.071l7.071-7.071l-7.071-7.071L221.03,207z"/>
<path fill="#FFFFFF" d="M691,328.9c-0.53,0-1.039-0.211-1.414-0.586l-9.899-9.9c-0.781-0.781-0.781-2.047,0-2.828l9.899-9.899
	c0.781-0.781,2.047-0.781,2.828,0l9.899,9.899c0.781,0.781,0.781,2.047,0,2.828l-9.899,9.9C692.039,328.689,691.53,328.9,691,328.9z
	 M683.929,317l7.071,7.072l7.071-7.072L691,309.929L683.929,317z"/>
<path fill="#FFFFFF" d="M544,67.9c-0.512,0-1.023-0.195-1.414-0.586l-9.899-9.899c-0.781-0.781-0.781-2.047,0-2.828l9.899-9.899
	c0.781-0.781,2.047-0.781,2.828,0l9.899,9.899c0.781,0.781,0.781,2.047,0,2.828l-9.899,9.899C545.023,67.705,544.512,67.9,544,67.9z
	 M536.929,56L544,63.071L551.071,56L544,48.93L536.929,56z"/>
<g id="椭圆_9" transform="translate(176 391)">
	<circle fill="none" cx="27.5" cy="27.5" r="27.5"/>
	<path fill="#FFC670" d="M27.5,55C12.336,55,0,42.663,0,27.5S12.336,0,27.5,0S55,12.337,55,27.5S42.664,55,27.5,55z M27.5,4
		C14.542,4,4,14.542,4,27.5S14.542,51,27.5,51S51,40.458,51,27.5S40.458,4,27.5,4z"/>
</g>
<g id="椭圆_10" transform="translate(194 100)">
	<circle fill="none" cx="13.5" cy="13.5" r="13.5"/>
	<path fill="#FFFFFF" d="M13.5,27C6.056,27,0,20.944,0,13.5S6.056,0,13.5,0S27,6.056,27,13.5S20.944,27,13.5,27z M13.5,4
		C8.262,4,4,8.262,4,13.5S8.262,23,13.5,23s9.5-4.262,9.5-9.5S18.738,4,13.5,4z"/>
</g>
<g id="椭圆_11" transform="translate(306 437)">
	<circle fill="none" cx="13.5" cy="13.5" r="13.5"/>
	<path fill="#FFFFFF" d="M13.5,27C6.056,27,0,20.944,0,13.5S6.056,0,13.5,0S27,6.056,27,13.5S20.944,27,13.5,27z M13.5,4
		C8.262,4,4,8.262,4,13.5S8.262,23,13.5,23s9.5-4.262,9.5-9.5S18.738,4,13.5,4z"/>
</g>
<g id="椭圆_12" transform="translate(438 89)">
	<circle fill="none" cx="9.5" cy="9.5" r="9.5"/>
	<path fill="#FFFFFF" d="M9.5,19C4.262,19,0,14.738,0,9.5S4.262,0,9.5,0S19,4.262,19,9.5S14.738,19,9.5,19z M9.5,4
		C6.467,4,4,6.467,4,9.5S6.467,15,9.5,15S15,12.533,15,9.5S12.533,4,9.5,4z"/>
</g>
<g id="椭圆_13" transform="translate(662 34)">
	<circle fill="none" cx="15" cy="15" r="15"/>
	<path fill="#FFC670" d="M15,30C6.729,30,0,23.271,0,15S6.729,0,15,0s15,6.729,15,15S23.271,30,15,30z M15,4C8.935,4,4,8.935,4,15
		s4.935,11,11,11s11-4.935,11-11S21.065,4,15,4z"/>
</g>
<g id="椭圆_15" transform="translate(359 28)">
	<circle fill="none" cx="9" cy="9" r="9"/>
	<path fill="#FFC670" d="M9,18c-4.962,0-9-4.038-9-9s4.038-9,9-9s9,4.038,9,9S13.962,18,9,18z M9,4C6.243,4,4,6.243,4,9s2.243,5,5,5
		s5-2.243,5-5S11.757,4,9,4z"/>
</g>
<g id="椭圆_14" transform="translate(692 185)">
	<circle fill="none" cx="15" cy="15" r="15"/>
	<path fill="#FFFFFF" d="M15,30C6.729,30,0,23.271,0,15S6.729,0,15,0s15,6.729,15,15S23.271,30,15,30z M15,4C8.935,4,4,8.935,4,15
		s4.935,11,11,11s11-4.935,11-11S21.065,4,15,4z"/>
</g>
<g id="矩形_93" transform="translate(296 113)">
	<path fill="#FFFFFF" d="M40,0h288c22.092,0,40,17.909,40,40v226c0,22.092-17.908,40-40,40H40c-22.091,0-40-17.908-40-40V40
		C0,17.909,17.909,0,40,0z"/>
	<path fill="#3D3D63" d="M328,306H40c-22.056,0-40-17.944-40-40V40C0,17.944,17.944,0,40,0h288c22.056,0,40,17.944,40,40v226
		C368,288.056,350.056,306,328,306z M40,20c-11.028,0-20,8.972-20,20v226c0,11.028,8.972,20,20,20h288c11.028,0,20-8.972,20-20V40
		c0-11.028-8.972-20-20-20H40z"/>
</g>
<path fill="#E1E8F2" d="M340.885,115.833h278.23c16.791,0,30.402,13.612,30.402,30.403v35.93l0,0H310.482l0,0v-35.93
	C310.482,129.445,324.094,115.833,340.885,115.833z"/>
<path fill="#3D3D63" d="M644,185H316c-11.028,0-20-8.972-20-20v-19c0-18.196,14.804-33,33-33h302c18.196,0,33,14.804,33,33v19
	C664,176.028,655.028,185,644,185z M329,133c-7.168,0-13,5.832-13,13v19h328c0.009,0,0.013,0,0.013,0L644,146
	c0-7.168-5.832-13-13-13H329z"/>
<circle id="椭圆_324" fill="#F6716F" cx="343" cy="149" r="10"/>
<path fill="#3D3D63" d="M437.597,225.5H347.5c-4.418,0-8-3.582-8-8s3.582-8,8-8h90.097c4.418,0,8,3.582,8,8
	S442.015,225.5,437.597,225.5z"/>
<path fill="#3D3D63" d="M461.5,259H347.903c-4.418,0-8-3.582-8-8s3.582-8,8-8H461.5c4.418,0,8,3.582,8,8S465.918,259,461.5,259z"/>
<path fill="#3D3D63" d="M612.5,293H347.903c-4.418,0-8-3.582-8-8s3.582-8,8-8H612.5c4.418,0,8,3.582,8,8S616.918,293,612.5,293z"/>
<path fill="#3D3D63" d="M612.5,259H498.903c-4.418,0-8-3.582-8-8s3.582-8,8-8H612.5c4.418,0,8,3.582,8,8S616.918,259,612.5,259z"/>
<path fill="#3D3D63" d="M525.5,226h-57c-4.418,0-8-3.582-8-8s3.582-8,8-8h57c4.418,0,8,3.582,8,8S529.918,226,525.5,226z"/>
<path fill="#3D3D63" d="M612.5,226h-57c-4.418,0-8-3.582-8-8s3.582-8,8-8h57c4.418,0,8,3.582,8,8S616.918,226,612.5,226z"/>
<path fill="#3D3D63" d="M413.5,327h-65.597c-4.418,0-8-3.582-8-8s3.582-8,8-8H413.5c4.418,0,8,3.582,8,8S417.918,327,413.5,327z"/>
<path fill="#3D3D63" d="M480.5,327h-35.597c-4.418,0-8-3.582-8-8s3.582-8,8-8H480.5c4.418,0,8,3.582,8,8S484.918,327,480.5,327z"/>
<path id="矩形_95" fill="#DBDBDB" d="M316,373h328l0,0v5c0,14.359-11.641,26-26,26H342c-14.359,0-26-11.641-26-26V373L316,373z"/>
<g id="组_684" transform="translate(6 -13.5)">
	<g id="组_18" transform="translate(530.079 417.5) rotate(-90)">
		<rect x="17" y="-2.062" fill="#B6BDC6" width="8" height="42"/>
		<rect x="9" y="-13" fill="#B6BDC6" width="8" height="26"/>
	</g>
	<g id="组_19" transform="translate(484.406 417.5) rotate(-90)">
		<rect x="17" y="-2.062" fill="#B6BDC6" width="8" height="42"/>
		<rect x="9" y="-13" fill="#B6BDC6" width="8" height="26"/>
	</g>
	<g id="组_17" transform="translate(439.847 417.5) rotate(-90)">
		<rect x="17" y="-2.062" fill="#B6BDC6" width="8" height="42"/>
		<rect x="9" y="-13" fill="#B6BDC6" width="8" height="26"/>
	</g>
	<g id="组_18-2" transform="translate(394.173 417.5) rotate(-90)">
		<rect x="17" y="-2.062" fill="#B6BDC6" width="8" height="42"/>
		<rect x="9" y="-13" fill="#B6BDC6" width="8" height="26"/>
	</g>
	<g id="组_19-2" transform="translate(348.5 417.5) rotate(-90)">
		<rect x="17" y="-2.062" fill="#B6BDC6" width="8" height="42"/>
		<rect x="9" y="-13" fill="#B6BDC6" width="8" height="26"/>
	</g>
</g>
</svg>
