<?xml version="1.0" encoding="utf-8"?>
<!-- Generator: Adobe Illustrator 16.0.0, SVG Export Plug-In . SVG Version: 6.00 Build 0)  -->
<!DOCTYPE svg PUBLIC "-//W3C//DTD SVG 1.1//EN" "http://www.w3.org/Graphics/SVG/1.1/DTD/svg11.dtd">
<svg version="1.1" id="图层_1" xmlns="http://www.w3.org/2000/svg" xmlns:xlink="http://www.w3.org/1999/xlink" x="0px" y="0px"
	 width="960px" height="540px" viewBox="0 0 960 540" enable-background="new 0 0 960 540" xml:space="preserve">
<g id="组_766">
	<path id="路径_1806" opacity="0.2" fill="#69BAF9" enable-background="new    " d="M820,509.85c0-187.776-152.223-340-340-340
		c-187.777,0-340,152.223-340,340"/>
	<path id="路径_1807" opacity="0.5" fill="#69BAF9" enable-background="new    " d="M727.618,509.85
		c0-136.812-110.908-247.72-247.719-247.72c-136.812,0-247.72,110.908-247.72,247.72"/>
	<path id="路径_1808" opacity="0.7" fill="#69BAF9" enable-background="new    " d="M635.6,509.85
		c0.219-85.755-69.122-155.45-154.878-155.668c-85.755-0.219-155.45,69.122-155.669,154.878c0,0.263,0,0.526,0,0.79"/>
</g>
<g id="组_764" transform="translate(-72.295)">
	<path fill="#3D3D63" d="M807.295,510h-264c-2.761,0-5-2.238-5-5s2.239-5,5-5h264c2.762,0,5,2.238,5,5S810.057,510,807.295,510z"/>
	<path fill="#3D3D63" d="M886.295,510h-58c-2.762,0-5-2.238-5-5s2.238-5,5-5h58c2.762,0,5,2.238,5,5S889.057,510,886.295,510z"/>
	<path fill="#3D3D63" d="M491.295,510h-60c-2.761,0-5-2.238-5-5s2.239-5,5-5h60c2.761,0,5,2.238,5,5S494.056,510,491.295,510z"/>
	<path fill="#3D3D63" d="M396.295,510h-178c-2.761,0-5-2.238-5-5s2.239-5,5-5h178c2.761,0,5,2.238,5,5S399.056,510,396.295,510z"/>
	<ellipse id="椭圆_336" fill="#3D3D63" cx="514.295" cy="505" rx="5" ry="4"/>
</g>
<g id="矩形_1220" transform="translate(250 304)">
	<rect fill="#D7DADD" width="100" height="144"/>
	<path fill="#3D3D63" d="M100,144H0V0h100V144z M16,128h68V16H16V128z"/>
</g>
<g id="矩形_1230" transform="translate(610 304)">
	<rect fill="#D7DADD" width="100" height="144"/>
	<path fill="#3D3D63" d="M100,144H0V0h100V144z M16,128h68V16H16V128z"/>
</g>
<g>
	<path id="路径_1952_1_" fill="#706270" d="M235,311.955h135V259H259.309L235,311.955z"/>
	<path fill="#3D3D63" d="M370,319.955H235c-2.725,0-5.263-1.388-6.734-3.682s-1.673-5.179-0.536-7.656l24.309-52.955
		c1.304-2.841,4.144-4.663,7.271-4.663H370c4.418,0,8,3.582,8,8v52.955C378,316.373,374.418,319.955,370,319.955z M247.475,303.955
		H362V267h-97.561L247.475,303.955z"/>
</g>
<g>
	<path id="路径_1978_1_" fill="#706270" d="M725,311.955H590V259h110.691L725,311.955z"/>
	<path fill="#3D3D63" d="M725,319.955H590c-4.418,0-8-3.582-8-8V259c0-4.418,3.582-8,8-8h110.691c3.126,0,5.966,1.821,7.271,4.663
		l24.309,52.955c1.137,2.478,0.935,5.362-0.536,7.656C730.263,318.567,727.726,319.955,725,319.955z M598,303.955h114.525
		L695.562,267H598V303.955z"/>
</g>
<g>
	<path id="多边形_10_1_" fill="#EDEDED" d="M480,58l176,121H304L480,58z"/>
	<path fill="#3D3D63" d="M656.02,187c-0.008,0-0.013,0-0.02,0H304c-3.504,0-6.601-2.281-7.64-5.627
		c-1.039-3.347,0.22-6.98,3.108-8.965l176-121c2.731-1.877,6.335-1.876,9.064,0l175.645,120.756
		c2.305,1.404,3.843,3.941,3.843,6.836C664.02,183.418,660.438,187,656.02,187z M329.757,171h300.485L480,67.708L329.757,171z"/>
</g>
<g id="矩形_1218" transform="translate(340 171)">
	<rect fill="#D7DADD" width="280" height="311"/>
	<path fill="#3D3D63" d="M280,311H0V0h280V311z M16,295h248V16H16V295z"/>
</g>
<g id="矩形_1212" transform="translate(370 187) rotate(90)">
	<path fill="#FFFFFF" d="M10,0h225c5.522,0,10,4.478,10,10v20c0,5.522-4.478,10-10,10H10C4.477,40,0,35.522,0,30V10
		C0,4.478,4.477,0,10,0z"/>
	<path fill="#3D3D63" d="M245,10v20c0,5.514-4.486,10-10,10H10C4.486,40,0,35.514,0,30V10C0,4.486,4.486,0,10,0h225
		C240.514,0,245,4.486,245,10z M231,26V14H14v12H231z"/>
</g>
<g id="矩形_1228" transform="translate(630 187) rotate(90)">
	<path fill="#FFFFFF" d="M10,0h225c5.522,0,10,4.478,10,10v20c0,5.522-4.478,10-10,10H10C4.477,40,0,35.522,0,30V10
		C0,4.478,4.477,0,10,0z"/>
	<path fill="#3D3D63" d="M245,10v20c0,5.514-4.486,10-10,10H10C4.486,40,0,35.514,0,30V10C0,4.486,4.486,0,10,0h225
		C240.514,0,245,4.486,245,10z M231,26V14H14v12H231z"/>
</g>
<rect x="326.553" y="174.333" fill="#C6C6C6" width="46.894" height="34.333"/>
<path fill="#3D3D63" d="M370,212h-40c-4.418,0-8-3.582-8-8v-25c0-4.418,3.582-8,8-8h40c4.418,0,8,3.582,8,8v25
	C378,208.418,374.418,212,370,212z M338,196h24v-9h-24V196z"/>
<rect x="586.325" y="174.167" fill="#C6C6C6" width="47.35" height="34.667"/>
<path fill="#3D3D63" d="M630,212h-40c-4.418,0-8-3.582-8-8v-25c0-4.418,3.582-8,8-8h40c4.418,0,8,3.582,8,8v25
	C638,208.418,634.418,212,630,212z M598,196h24v-9h-24V196z"/>
<g id="矩形_1217" transform="translate(230 432)">
	<rect fill="#D7DADD" width="500" height="50"/>
	<path fill="#3D3D63" d="M492,50H8c-4.418,0-8-3.582-8-8V8c0-4.418,3.582-8,8-8h484c4.418,0,8,3.582,8,8v34
		C500,46.418,496.418,50,492,50z M16,34h468V16H16V34z"/>
</g>
<g id="椭圆_452" transform="translate(451 90)">
	<circle fill="#FFFFFF" cx="29" cy="29" r="29"/>
	<path fill="#3D3D63" d="M29,58C13.009,58,0,44.991,0,29S13.009,0,29,0c15.99,0,29,13.009,29,29S44.99,58,29,58z M29,14
		c-8.271,0-15,6.729-15,15s6.729,15,15,15c8.271,0,15-6.729,15-15S37.271,14,29,14z"/>
</g>
<g id="矩形_1221" transform="translate(436 171)">
	<rect fill="#C6C6C6" width="88" height="50"/>
	<path fill="#3D3D63" d="M88,50H0V0h88V50z M16,34h56V16H16V34z"/>
</g>
<g id="矩形_1232" transform="translate(637 343)">
	<path fill="#FFFFFF" d="M12,0h26c6.627,0,12,5.373,12,12v18c0,6.627-5.373,12-12,12H12C5.373,42,0,36.627,0,30V12
		C0,5.373,5.373,0,12,0z"/>
	<path fill="#3D3D63" d="M38,42H12C5.383,42,0,36.617,0,30V12C0,5.383,5.383,0,12,0h26c6.617,0,12,5.383,12,12v18
		C50,36.617,44.617,42,38,42z M12,10c-1.103,0-2,0.897-2,2v18c0,1.103,0.897,2,2,2h26c1.103,0,2-0.897,2-2V12c0-1.103-0.897-2-2-2
		H12z"/>
</g>
<g id="矩形_1233" transform="translate(273 343)">
	<path fill="#FFFFFF" d="M12,0h26c6.627,0,12,5.373,12,12v18c0,6.627-5.373,12-12,12H12C5.373,42,0,36.627,0,30V12
		C0,5.373,5.373,0,12,0z"/>
	<path fill="#3D3D63" d="M38,42H12C5.383,42,0,36.617,0,30V12C0,5.383,5.383,0,12,0h26c6.617,0,12,5.383,12,12v18
		C50,36.617,44.617,42,38,42z M12,10c-1.103,0-2,0.897-2,2v18c0,1.103,0.897,2,2,2h26c1.103,0,2-0.897,2-2V12c0-1.103-0.897-2-2-2
		H12z"/>
</g>
<rect id="矩形_1234" x="266" y="407" fill="#C6C6C6" width="84" height="25"/>
<rect id="矩形_1236" x="370" y="407" fill="#C6C6C6" width="220" height="25"/>
<rect id="矩形_1235" x="610" y="407" fill="#C6C6C6" width="84" height="25"/>
<rect x="326.333" y="410.173" fill="#C6C6C6" width="47.333" height="34.654"/>
<path fill="#3D3D63" d="M370,448h-40c-4.418,0-8-3.582-8-8v-25c0-4.418,3.582-8,8-8h40c4.418,0,8,3.582,8,8v25
	C378,444.418,374.418,448,370,448z M338,432h24v-9h-24V432z"/>
<rect x="586.324" y="410.166" fill="#C6C6C6" width="47.352" height="34.668"/>
<path fill="#3D3D63" d="M630,448h-40c-4.418,0-8-3.582-8-8v-25c0-4.418,3.582-8,8-8h40c4.418,0,8,3.582,8,8v25
	C638,444.418,634.418,448,630,448z M598,432h24v-9h-24V432z"/>
<g>
	<path id="路径_1979_1_" fill="#706270" d="M540,432v-76c0-33.137-26.863-60-60-60s-60,26.863-60,60v76"/>
	<path fill="#3D3D63" d="M548,432h-16v-76c0-28.673-23.327-52-52-52s-52,23.327-52,52v76h-16v-76c0-37.495,30.505-68,68-68
		s68,30.505,68,68V432z"/>
</g>
<path id="路径_1981" fill="#615364" d="M428,432l0.045-76.045C428.045,327.262,451.306,304,480,304c0,117.8,0,128,0,128H428z"/>
<g id="组_886" transform="translate(177 50)">
	<g id="组_781" transform="translate(93.213 363.855)">
		<path fill="#FEB740" d="M32.692,20.346H0c-2.209,0-4-1.791-4-4s1.791-4,4-4h32.692c2.209,0,4,1.791,4,4
			S34.901,20.346,32.692,20.346z"/>
		<path fill="#FEB740" d="M16.346,36.692c-2.209,0-4-1.791-4-4V0c0-2.209,1.791-4,4-4s4,1.791,4,4v32.691
			C20.346,34.901,18.555,36.692,16.346,36.692z"/>
	</g>
	<g id="组_782" transform="translate(117.96 228.837)">
		<g id="组_775">
			<g id="组_770" transform="translate(20.007)">
				<path fill="#FEB740" d="M0,11.322c-2.209,0-4-1.791-4-4V0c0-2.209,1.791-4,4-4s4,1.791,4,4v7.322C4,9.531,2.209,11.322,0,11.322
					z"/>
				<path fill="#FEB740" d="M0,44.015c-2.209,0-4-1.791-4-4v-7.322c0-2.209,1.791-4,4-4s4,1.791,4,4v7.322
					C4,42.224,2.209,44.015,0,44.015z"/>
			</g>
			<g id="组_771" transform="translate(0 20.007) rotate(-90)">
				<path fill="#FEB740" d="M-4,40.014v-7.321c0-2.209,1.791-4,4-4s4,1.791,4,4v7.321c0,2.209-1.791,4-4,4S-4,42.223-4,40.014z"/>
				<path fill="#FEB740" d="M-4,7.322V0c0-2.209,1.791-4,4-4s4,1.791,4,4v7.322c0,2.209-1.791,4-4,4S-4,9.531-4,7.322z"/>
			</g>
			<g id="组_772" transform="translate(5.86 34.154) rotate(-135)">
				<path fill="#FEB740" d="M-2.828,29.864c0.724-0.724,1.724-1.171,2.829-1.171c2.209,0,4,1.791,4,4.001L4,40.014
					c-0.001,2.208-1.793,4-4.001,3.999c-2.209,0-4-1.791-4-4.001L-4,32.691C-4,31.588-3.552,30.587-2.828,29.864z"/>
				<path fill="#FEB740" d="M-2.829-2.828C-2.105-3.552-1.105-4-0.001-4c2.21,0,4,1.791,4.001,4L4,7.321
					c0.001,2.209-1.791,4-3.999,4.001c-2.21,0-4-1.791-4.001-4L-4,0C-4.001-1.104-3.553-2.104-2.829-2.828z"/>
			</g>
			<g id="组_773" transform="translate(5.86 5.86) rotate(-45)">
				<path fill="#FEB740" d="M-2.829,10.151c-0.724-0.724-1.171-1.724-1.171-2.829L-4,0c0-2.209,1.791-4,4.001-4
					C2.209-3.998,4-2.208,4,0.001L3.999,7.322c0,2.209-1.791,4-4.001,4C-1.105,11.322-2.105,10.874-2.829,10.151z"/>
				<path fill="#FEB740" d="M-2.828,42.843C-3.552,42.119-4,41.119-4,40.015l-0.001-7.322c0-2.21,1.791-4,4-4.001
					C2.208,28.692,3.998,30.483,4,32.692L4,40.013c0,2.21-1.791,4-4,4.001C-1.104,44.014-2.104,43.567-2.828,42.843z"/>
			</g>
		</g>
	</g>
	<g id="路径_1815" transform="translate(0 155.875)">
		<path fill="none" d="M16.95,33.9C7.589,33.9,0,26.311,0,16.95C0,7.589,7.589,0,16.95,0C26.311,0,33.9,7.589,33.9,16.95
			C33.9,26.311,26.311,33.9,16.95,33.9L16.95,33.9z"/>
		<path fill="#FEB740" d="M16.95,25.899c4.935,0,8.95-4.015,8.95-8.95S21.885,8,16.95,8S8,12.015,8,16.95
			S12.015,25.899,16.95,25.899 M16.95,33.899C7.589,33.899,0,26.311,0,16.95S7.589,0,16.95,0s16.95,7.589,16.95,16.95
			S26.311,33.899,16.95,33.899z"/>
	</g>
	<g id="路径_1816" transform="translate(96.455 0)">
		<path fill="none" d="M14.127,28.254C6.325,28.254,0,21.929,0,14.127S6.325,0,14.127,0s14.127,6.325,14.127,14.127
			S21.929,28.254,14.127,28.254L14.127,28.254z"/>
		<path fill="#FEB740" d="M14.127,20.254c3.378,0,6.127-2.749,6.127-6.127S17.505,8,14.127,8S8,10.749,8,14.127
			S10.749,20.254,14.127,20.254 M14.127,28.254C6.325,28.254,0,21.929,0,14.127S6.325,0,14.127,0s14.127,6.325,14.127,14.127
			S21.929,28.254,14.127,28.254z"/>
	</g>
	<g id="路径_1817" transform="translate(521.238 262.143)">
		<path fill="none" d="M20.356,40.712C9.114,40.712,0,31.598,0,20.356S9.114,0,20.356,0s20.356,9.114,20.356,20.356
			S31.598,40.712,20.356,40.712z"/>
		<path fill="#FEB740" d="M20.356,32.711c6.813,0,12.355-5.542,12.355-12.355S27.169,8,20.356,8C13.543,8,8,13.543,8,20.356
			S13.543,32.711,20.356,32.711 M20.356,40.711C9.114,40.711,0,31.598,0,20.356S9.114,0,20.356,0s20.355,9.114,20.355,20.356
			S31.598,40.711,20.356,40.711z"/>
	</g>
	<g id="组_783" transform="translate(581.172 49.37)">
		<path fill="#FEB740" d="M24.703,15.401H0c-2.209,0-4-1.791-4-4s1.791-4,4-4h24.703c2.209,0,4,1.791,4,4
			S26.912,15.401,24.703,15.401z"/>
		<path fill="#FEB740" d="M12.352,28.703c-2.209,0-4-1.791-4-4V0c0-2.209,1.791-4,4-4s4,1.791,4,4v24.703
			C16.352,26.912,14.561,28.703,12.352,28.703z"/>
	</g>
</g>
<path fill="#3D3D63" d="M512.5,164.5h-65c-3.313,0-6-2.687-6-6s2.687-6,6-6h65c3.313,0,6,2.687,6,6S515.813,164.5,512.5,164.5z"/>
<g>
	<path id="矩形_1231_1_" fill="#E39A6D" d="M419,213h123c1.104,0,2,0.896,2,2v34c0,1.104-0.896,2-2,2H419c-1.104,0-2-0.896-2-2
		v-34C417,213.896,417.896,213,419,213z"/>
	<path fill="#3D3D63" d="M542,259H419c-5.514,0-10-4.486-10-10v-34c0-5.514,4.486-10,10-10h123c5.514,0,10,4.486,10,10v34
		C552,254.514,547.514,259,542,259z M425,243h111v-22H425V243z"/>
</g>
</svg>
