<?xml version="1.0" encoding="utf-8"?>
<!-- Generator: Adobe Illustrator 16.0.0, SVG Export Plug-In . SVG Version: 6.00 Build 0)  -->
<!DOCTYPE svg PUBLIC "-//W3C//DTD SVG 1.1//EN" "http://www.w3.org/Graphics/SVG/1.1/DTD/svg11.dtd">
<svg version="1.1" id="图层_1" xmlns="http://www.w3.org/2000/svg" xmlns:xlink="http://www.w3.org/1999/xlink" x="0px" y="0px"
	 width="960px" height="540px" viewBox="0 0 960 540" enable-background="new 0 0 960 540" xml:space="preserve">
<g id="组_766">
	<path id="路径_1806" opacity="0.2" fill="#69BAF9" enable-background="new    " d="M820,509.85c0-187.777-152.223-340-340-340
		c-187.776,0-340,152.223-340,340"/>
	<path id="路径_1807" opacity="0.5" fill="#69BAF9" enable-background="new    " d="M727.618,509.85
		c0-136.813-110.907-247.721-247.719-247.721s-247.72,110.908-247.72,247.721"/>
	<path id="路径_1808" opacity="0.7" fill="#69BAF9" enable-background="new    " d="M635.6,509.85
		c0.218-85.755-69.123-155.45-154.878-155.669c-85.756-0.219-155.451,69.123-155.669,154.878c-0.001,0.264-0.001,0.527,0,0.791"/>
</g>
<g id="组_764" transform="translate(-72.295)">
	<path fill="#3D3D63" d="M807.295,510h-264c-2.761,0-5-2.238-5-5s2.239-5,5-5h264c2.762,0,5,2.238,5,5S810.056,510,807.295,510z"/>
	<path fill="#3D3D63" d="M886.295,510h-58c-2.762,0-5-2.238-5-5s2.238-5,5-5h58c2.762,0,5,2.238,5,5S889.056,510,886.295,510z"/>
	<path fill="#3D3D63" d="M491.295,510h-60c-2.761,0-5-2.238-5-5s2.239-5,5-5h60c2.761,0,5,2.238,5,5S494.056,510,491.295,510z"/>
	<path fill="#3D3D63" d="M396.295,510h-178c-2.761,0-5-2.238-5-5s2.239-5,5-5h178c2.761,0,5,2.238,5,5S399.056,510,396.295,510z"/>
	<ellipse id="椭圆_336" fill="#3D3D63" cx="514.295" cy="505" rx="5" ry="4"/>
</g>
<path id="路径_2282_1_" fill="#D4E5FA" d="M422.93,124.294c-59.609,59.609-59.477,156.386,0.295,216.158
	c59.772,59.771,156.548,59.903,216.157,0.294C566.878,266.916,422.93,124.294,422.93,124.294z"/>
<path fill="#3D3D63" d="M531.584,395.367c-0.006,0-0.005,0-0.01,0c-43.579-0.003-84.569-16.994-115.419-47.844
	c-63.575-63.576-63.708-166.888-0.295-230.301c3.894-3.892,10.2-3.906,14.109-0.032c1.44,1.426,144.826,143.515,216.549,216.549
	c3.845,3.915,3.816,10.197-0.063,14.078C615.792,378.478,574.994,395.367,531.584,395.367z M423.205,138.649
	c-48.708,55.979-46.313,141.328,7.091,194.732c27.073,27.073,63.041,41.984,101.278,41.986c0.002,0,0.006,0,0.009,0
	c34.742,0,67.569-12.33,93.478-34.92C561.386,275.814,452.328,167.535,423.205,138.649z"/>
<g id="组_1057" transform="translate(673.489 165) rotate(-135)">
	<path fill="#3D3D63" d="M-7.072-6.617c1.811-1.811,4.312-2.93,7.075-2.929c5.523,0.002,9.998,4.482,9.996,10.004
		C9.994,12.618,14.725,24.052,23.32,32.653c8.594,8.602,20.023,13.342,32.184,13.346c12.145-0.004,23.57-4.739,32.162-13.332
		c0.005-0.005,0.009-0.009,0.014-0.014c8.595-8.602,13.325-20.036,13.32-32.196c-0.001-5.523,4.473-10.003,9.997-10.004
		C116.518-9.548,120.998-5.073,121,0.45c0.007,17.502-6.802,33.96-19.172,46.34c-0.006,0.006-0.014,0.014-0.02,0.02
		C89.439,59.179,72.997,65.993,55.504,66c-17.509-0.007-33.961-6.829-46.331-19.21C-3.199,34.409-10.008,17.952-10,0.45
		C-9.999-2.31-8.88-4.809-7.072-6.617z"/>
	<path fill="#3D3D63" d="M23.832-7.071C25.642-8.881,28.141-10,30.903-10c5.523,0,10,4.477,10,10c0,3.9,1.518,7.566,4.276,10.323
		c2.758,2.758,6.424,4.276,10.323,4.276C63.549,14.598,70.097,8.048,70.096,0c0.001-5.524,4.477-10,10-10c5.523,0,10,4.477,10,10
		c0,19.075-15.518,34.596-34.592,34.599C36.424,34.6,20.903,19.079,20.903,0C20.903-2.762,22.022-5.261,23.832-7.071z"/>
</g>
<g id="路径_2285" transform="translate(612.23 181.832) rotate(135)">
	<path fill="none" d="M0,0l102.812-36.018L102.9,84.099L0,47L0,0z"/>
	<path fill="#3D3D63" d="M82.833-7.828L20,14.185L20,32.95l62.883,22.669L82.833-7.828 M102.812-36.018l0.093,120.116L0,47L0,0
		L102.812-36.018z"/>
</g>
<g id="椭圆_498" transform="translate(566 136)">
	<circle fill="#A4DA86" cx="29" cy="29" r="29"/>
	<path fill="#3D3D63" d="M29,58C13.009,58,0,44.99,0,29S13.009,0,29,0s29,13.009,29,29S44.99,58,29,58z M29,20c-4.963,0-9,4.038-9,9
		s4.037,9,9,9s9-4.038,9-9S33.963,20,29,20z"/>
</g>
<path fill="#3D3D63" d="M419.145,349.074c-27.177-65.849-12.373-140.762,37.715-190.851l14.143,14.143
	c-44.356,44.356-57.455,110.723-33.371,169.077L419.145,349.074z"/>
<path fill="#3D3D63" d="M500.575,351.29c-41.772,0-83.579-15.926-115.42-47.767l14.142-14.143
	c55.777,55.776,146.401,55.909,202.015,0.294l14.143,14.143C583.801,335.469,542.205,351.29,500.575,351.29z"/>
<path fill="#3D3D63" d="M423.499,348.5c-2.542,0-5.085-0.963-7.035-2.894c-3.925-3.886-3.957-10.217-0.071-14.142l99-100
	c3.886-3.925,10.219-3.956,14.142-0.071c3.925,3.886,3.957,10.217,0.071,14.142l-99,100C428.651,347.51,426.075,348.5,423.499,348.5
	z"/>
<path fill="#FFFFFF" d="M470,462.597H318v-133c0-11.028,8.973-20,20-20h1.367l1.316-0.367L394,294.381l53.317,14.85l1.316,0.367H450
	c11.028,0,20,8.972,20,20V462.597z"/>
<path fill="#3D3D63" d="M394,304.761l-50.634,14.103c-1.747,0.486-3.553,0.733-5.366,0.733c-5.514,0-10,4.485-10,10v123h132v-123
	c0-5.515-4.485-10-10-10c-1.813,0-3.618-0.247-5.365-0.733L394,304.761 M394,284.001l56,15.597c16.569,0,30,13.432,30,30v143H308
	v-143c0-16.568,13.432-30,30-30L394,284.001z"/>
<g id="椭圆_500" transform="translate(405 302)">
	<circle fill="#D4E5FA" cx="18" cy="37.597" r="18"/>
	<path fill="#3D3D63" d="M18,55.597c-9.925,0-18-8.075-18-18s8.075-18,18-18s18,8.075,18,18S27.925,55.597,18,55.597z M18,31.597
		c-3.309,0-6,2.691-6,6s2.691,6,6,6s6-2.691,6-6S21.308,31.597,18,31.597z"/>
</g>
<rect id="矩形_1401" x="328" y="424.597" fill="#F4F1EC" width="132" height="28"/>
<g id="组_1059" transform="translate(177 50)">
	<g id="组_781" transform="translate(479.97 363.855)">
		<path fill="#9BE09F" d="M32.692,20.346H0c-2.209,0-4-1.791-4-4s1.791-4,4-4h32.691c2.209,0,4,1.791,4,4
			S34.901,20.346,32.692,20.346z"/>
		<path fill="#9BE09F" d="M16.346,36.693c-2.209,0-4-1.791-4-4V0c0-2.209,1.791-4,4-4s4,1.791,4,4v32.692
			C20.346,34.902,18.555,36.693,16.346,36.693z"/>
	</g>
	<g id="组_782" transform="translate(447.901 228.837)">
		<g id="组_775" transform="translate(0 0)">
			<g id="组_770" transform="translate(20.007)">
				<path fill="#9BE09F" d="M0,11.322c-2.209,0-4-1.791-4-4V0c0-2.209,1.791-4,4-4s4,1.791,4,4v7.322C4,9.531,2.209,11.322,0,11.322
					z"/>
				<path fill="#9BE09F" d="M0,44.014c-2.209,0-4-1.791-4-4v-7.322c0-2.209,1.791-4,4-4s4,1.791,4,4v7.322
					C4,42.223,2.209,44.014,0,44.014z"/>
			</g>
			<g id="组_771" transform="translate(0 20.007) rotate(-90)">
				<path fill="#9BE09F" d="M-4,7.322V0c0-2.209,1.791-4,4-4s4,1.791,4,4v7.322c0,2.209-1.791,4-4,4S-4,9.531-4,7.322z"/>
				<path fill="#9BE09F" d="M-4,40.015v-7.322c0-2.209,1.791-4,4-4s4,1.791,4,4v7.322c0,2.209-1.791,4-4,4S-4,42.224-4,40.015z"/>
			</g>
			<g id="组_772" transform="translate(5.86 5.86) rotate(-45)">
				<path fill="#9BE09F" d="M-2.829,10.15c-0.724-0.724-1.172-1.724-1.172-2.829L-4,0c0.001-2.209,1.791-4,4.001-4
					c2.21,0.001,4,1.793,4,4.001L4,7.323c-0.001,2.209-1.791,4-4.001,4C-1.105,11.322-2.105,10.874-2.829,10.15z"/>
				<path fill="#9BE09F" d="M-2.828,42.842C-3.552,42.119-3.999,41.119-4,40.015l-0.001-7.322c0-2.21,1.791-4,4-4.001
					c2.21,0,4,1.791,4.001,4L4,40.013c0,2.21-1.791,4-4,4.001C-1.104,44.014-2.105,43.566-2.828,42.842z"/>
			</g>
			<g id="组_773" transform="translate(5.86 34.154) rotate(-135)">
				<path fill="#9BE09F" d="M-2.829,29.863c0.724-0.724,1.724-1.172,2.828-1.171c2.209-0.001,4,1.791,4,4v7.322
					c0.001,2.208-1.791,4.001-4,4c-2.209,0.001-4-1.791-4-4v-7.322C-4,31.587-3.552,30.587-2.829,29.863z"/>
				<path fill="#9BE09F" d="M-2.829-2.828C-2.105-3.552-1.104-4,0-3.999c2.209-0.001,4,1.791,4,4v7.321c0.001,2.208-1.791,4.001-4,4
					c-2.209,0.001-4-1.791-4-4V0C-4-1.104-3.552-2.105-2.829-2.828z"/>
			</g>
		</g>
	</g>
	<g id="路径_1815" transform="translate(571.976 155.875)">
		<path fill="none" d="M16.95,33.9c9.361,0,16.95-7.589,16.95-16.95S26.312,0,16.95,0S0,7.589,0,16.95S7.589,33.9,16.95,33.9z"/>
		<path fill="#9BE09F" d="M16.949,25.899c4.936,0,8.95-4.015,8.95-8.949c0-4.936-4.015-8.95-8.95-8.95C12.015,8,8,12.014,8,16.95
			C8,21.885,12.015,25.899,16.949,25.899 M16.949,33.899C7.589,33.899,0,26.31,0,16.95C0,7.589,7.589,0,16.949,0
			C26.311,0,33.9,7.589,33.9,16.95C33.9,26.31,26.311,33.899,16.949,33.899z"/>
	</g>
	<g id="路径_1816" transform="translate(481.167 0)">
		<path fill="none" d="M14.128,28.254c7.802,0,14.127-6.324,14.127-14.127C28.254,6.325,21.929,0,14.128,0
			C6.325,0,0.001,6.325,0.001,14.127C0.001,21.929,6.325,28.254,14.128,28.254z"/>
		<path fill="#9BE09F" d="M14.128,20.254c3.378,0,6.127-2.748,6.127-6.127c0-3.378-2.749-6.127-6.127-6.127
			c-3.379,0-6.127,2.749-6.127,6.127C8.001,17.506,10.749,20.254,14.128,20.254 M14.128,28.254c-7.803,0-14.127-6.324-14.127-14.127
			C0.001,6.325,6.325,0,14.128,0c7.802,0,14.127,6.325,14.127,14.127C28.254,21.929,21.929,28.254,14.128,28.254z"/>
	</g>
	<g id="路径_1817" transform="translate(43.925 262.143)">
		<path fill="none" d="M20.356,40.712c11.242,0,20.356-9.113,20.356-20.356C40.712,9.114,31.598,0,20.356,0
			S-0.001,9.114-0.001,20.356C-0.001,31.599,9.114,40.712,20.356,40.712z"/>
		<path fill="#9BE09F" d="M20.356,32.712c6.813,0,12.355-5.543,12.355-12.356C32.711,13.543,27.168,8,20.356,8
			C13.542,8,7.999,13.543,7.999,20.356C7.999,27.169,13.542,32.712,20.356,32.712 M20.356,40.712
			c-11.242,0-20.356-9.114-20.356-20.356S9.114,0,20.356,0s20.355,9.113,20.355,20.355S31.598,40.712,20.356,40.712z"/>
	</g>
	<g id="组_783" transform="translate(0 49.37)">
		<path fill="#9BE09F" d="M24.703,15.401H0c-2.209,0-4-1.791-4-4s1.791-4,4-4h24.703c2.209,0,4,1.791,4,4
			S26.912,15.401,24.703,15.401z"/>
		<path fill="#9BE09F" d="M12.352,28.703c-2.209,0-4-1.791-4-4V0c0-2.209,1.791-4,4-4s4,1.791,4,4v24.703
			C16.352,26.912,14.561,28.703,12.352,28.703z"/>
	</g>
</g>
<rect x="317.5" y="404.5" fill="#3D3D63" width="154" height="20"/>
</svg>
