<?xml version="1.0" encoding="utf-8"?>
<!-- Generator: Adobe Illustrator 16.0.0, SVG Export Plug-In . SVG Version: 6.00 Build 0)  -->
<!DOCTYPE svg PUBLIC "-//W3C//DTD SVG 1.1//EN" "http://www.w3.org/Graphics/SVG/1.1/DTD/svg11.dtd">
<svg version="1.1" id="图层_1" xmlns="http://www.w3.org/2000/svg" xmlns:xlink="http://www.w3.org/1999/xlink" x="0px" y="0px"
	 width="960px" height="540px" viewBox="0 0 960 540" enable-background="new 0 0 960 540" xml:space="preserve">
<g id="组_766">
	<path id="路径_1806" opacity="0.2" fill="#69BAF9" enable-background="new    " d="M820,509.85c0-187.776-152.223-340-340-340
		c-187.777,0-340,152.223-340,340"/>
	<path id="路径_1807" opacity="0.5" fill="#69BAF9" enable-background="new    " d="M727.618,509.85
		c0-136.812-110.908-247.72-247.719-247.72c-136.812,0-247.72,110.908-247.72,247.72"/>
	<path id="路径_1808" opacity="0.7" fill="#69BAF9" enable-background="new    " d="M635.6,509.85
		c0.219-85.755-69.122-155.45-154.878-155.668c-85.755-0.219-155.45,69.122-155.669,154.878c0,0.263,0,0.526,0,0.79"/>
</g>
<g id="组_764" transform="translate(-72.295)">
	<path fill="#3D3D63" d="M807.295,510h-264c-2.761,0-5-2.238-5-5s2.239-5,5-5h264c2.762,0,5,2.238,5,5S810.057,510,807.295,510z"/>
	<path fill="#3D3D63" d="M886.295,510h-58c-2.762,0-5-2.238-5-5s2.238-5,5-5h58c2.762,0,5,2.238,5,5S889.057,510,886.295,510z"/>
	<path fill="#3D3D63" d="M491.295,510h-60c-2.761,0-5-2.238-5-5s2.239-5,5-5h60c2.761,0,5,2.238,5,5S494.056,510,491.295,510z"/>
	<path fill="#3D3D63" d="M396.295,510h-178c-2.761,0-5-2.238-5-5s2.239-5,5-5h178c2.761,0,5,2.238,5,5S399.056,510,396.295,510z"/>
	<ellipse id="椭圆_336" fill="#3D3D63" cx="514.295" cy="505" rx="5" ry="4"/>
</g>
<g id="矩形_1367" transform="translate(243 100)">
	<path fill="#E9E9E9" d="M38,0h399c20.986,0,38,17.013,38,38v306c0,20.987-17.014,38-38,38H38c-20.987,0-38-17.013-38-38V38
		C0,17.013,17.013,0,38,0z"/>
	<path fill="#3D3D63" d="M437,382H38c-20.953,0-38-17.047-38-38V38C0,17.047,17.047,0,38,0h399c20.953,0,38,17.047,38,38v306
		C475,364.953,457.953,382,437,382z M38,20c-9.925,0-18,8.075-18,18v306c0,9.925,8.075,18,18,18h399c9.925,0,18-8.075,18-18V38
		c0-9.925-8.075-18-18-18H38z"/>
</g>
<g id="矩形_1369" transform="translate(300 147)">
	<path fill="#7AC1FA" d="M29,0h24c16.017,0,29,12.984,29,29l0,0c0,16.016-12.983,29-29,29H29C12.983,58,0,45.016,0,29l0,0
		C0,12.984,12.983,0,29,0z"/>
	<path fill="#3D3D63" d="M53,58H29C13.009,58,0,44.991,0,29S13.009,0,29,0h24c15.991,0,29,13.009,29,29S68.991,58,53,58z M29,16
		c-7.168,0-13,5.832-13,13s5.832,13,13,13h24c7.168,0,13-5.832,13-13s-5.832-13-13-13H29z"/>
</g>
<g id="矩形_1370" transform="translate(578 147)">
	<path fill="#7AC1FA" d="M29,0h24c16.017,0,29,12.984,29,29l0,0c0,16.016-12.983,29-29,29H29C12.983,58,0,45.016,0,29l0,0
		C0,12.984,12.983,0,29,0z"/>
	<path fill="#3D3D63" d="M53,58H29C13.01,58,0,44.991,0,29S13.01,0,29,0h24c15.99,0,29,13.009,29,29S68.99,58,53,58z M29,16
		c-7.168,0-13,5.832-13,13s5.832,13,13,13h24c7.168,0,13-5.832,13-13s-5.832-13-13-13H29z"/>
</g>
<g id="矩形_1368" transform="translate(319 50)">
	<path fill="#B2B2B2" d="M22,0L22,0c12.15,0,22,9.85,22,22v90c0,12.15-9.85,22-22,22l0,0c-12.15,0-22-9.85-22-22V22
		C0,9.85,9.85,0,22,0z"/>
	<path fill="#3D3D63" d="M22,134c-12.131,0-22-9.869-22-22V22C0,9.869,9.869,0,22,0s22,9.869,22,22v90C44,124.131,34.131,134,22,134
		z M22,16c-3.309,0-6,2.691-6,6v90c0,3.309,2.691,6,6,6s6-2.691,6-6V22C28,18.691,25.309,16,22,16z"/>
</g>
<g id="矩形_1371" transform="translate(597 50)">
	<path fill="#B2B2B2" d="M22,0L22,0c12.15,0,22,9.85,22,22v90c0,12.15-9.85,22-22,22l0,0c-12.15,0-22-9.85-22-22V22
		C0,9.85,9.85,0,22,0z"/>
	<path fill="#3D3D63" d="M22,134c-12.131,0-22-9.869-22-22V22C0,9.869,9.869,0,22,0s22,9.869,22,22v90C44,124.131,34.131,134,22,134
		z M22,16c-3.309,0-6,2.691-6,6v90c0,3.309,2.691,6,6,6s6-2.691,6-6V22C28,18.691,25.309,16,22,16z"/>
</g>
<g id="组_1053">
	<path fill="#3D3D63" d="M641.5,253.5h-322c-5.523,0-10-4.477-10-10s4.477-10,10-10h322c5.522,0,10,4.477,10,10
		S647.022,253.5,641.5,253.5z"/>
	<path fill="#3D3D63" d="M352.5,436.5c-5.523,0-10-4.478-10-10v-204c0-5.523,4.477-10,10-10s10,4.477,10,10v204
		C362.5,432.022,358.023,436.5,352.5,436.5z"/>
	<path fill="#3D3D63" d="M416.5,436.5c-5.523,0-10-4.478-10-10v-204c0-5.523,4.477-10,10-10s10,4.477,10,10v204
		C426.5,432.022,422.023,436.5,416.5,436.5z"/>
	<path fill="#3D3D63" d="M480.5,436.5c-5.523,0-10-4.478-10-10v-204c0-5.523,4.477-10,10-10c5.522,0,10,4.477,10,10v204
		C490.5,432.022,486.022,436.5,480.5,436.5z"/>
	<path fill="#3D3D63" d="M544.5,436.5c-5.522,0-10-4.478-10-10v-204c0-5.523,4.478-10,10-10s10,4.477,10,10v204
		C554.5,432.022,550.022,436.5,544.5,436.5z"/>
	<path fill="#3D3D63" d="M608.5,436.5c-5.522,0-10-4.478-10-10v-204c0-5.523,4.478-10,10-10s10,4.477,10,10v204
		C618.5,432.022,614.022,436.5,608.5,436.5z"/>
	<path fill="#3D3D63" d="M641.5,307.5h-322c-5.523,0-10-4.478-10-10s4.477-10,10-10h322c5.522,0,10,4.478,10,10
		S647.022,307.5,641.5,307.5z"/>
	<path fill="#3D3D63" d="M641.5,361.5h-322c-5.523,0-10-4.478-10-10s4.477-10,10-10h322c5.522,0,10,4.478,10,10
		S647.022,361.5,641.5,361.5z"/>
	<path fill="#3D3D63" d="M641.5,415.5h-322c-5.523,0-10-4.478-10-10s4.477-10,10-10h322c5.522,0,10,4.478,10,10
		S647.022,415.5,641.5,415.5z"/>
</g>
<rect id="矩形_1373" x="490" y="307" fill="#A4DA86" width="45" height="35"/>
<rect id="矩形_1374" x="362" y="253" fill="#F6716F" width="45" height="35"/>
<rect id="矩形_1375" x="426" y="253" fill="#FFD28E" width="45" height="35"/>
<rect id="矩形_1376" x="554" y="361" fill="#F6716F" width="45" height="35"/>
<g id="组_1050" transform="translate(218.155 73)">
	<g id="路径_1850" transform="translate(480.051 309.578)">
		<path fill="none" d="M12.99,25.979c7.174,0,12.989-5.815,12.989-12.99c0-7.174-5.815-12.989-12.989-12.989
			C5.815-0.001,0,5.815,0,12.988c0,0.001,0,0.002,0,0.002C0.001,20.164,5.816,25.979,12.99,25.979z"/>
		<path fill="#8682F8" d="M12.989,17.979c2.752,0,4.99-2.238,4.99-4.989S15.741,8,12.989,8C10.238,8,8,10.238,8,12.989
			S10.238,17.979,12.989,17.979 M12.989,25.979C5.815,25.979,0,20.164,0,12.989C0,5.816,5.815,0,12.989,0s12.99,5.815,12.99,12.989
			C25.98,20.164,20.163,25.979,12.989,25.979z"/>
	</g>
	<g id="路径_1851" transform="translate(0 230.717)">
		<path fill="none" d="M17.42,34.84c9.621,0,17.42-7.799,17.42-17.42S27.041,0,17.42,0C7.799,0,0,7.799,0,17.42
			S7.799,34.84,17.42,34.84z"/>
		<path fill="#8682F8" d="M17.42,26.84c5.194,0,9.42-4.225,9.42-9.42c0-5.193-4.226-9.42-9.42-9.42S8,12.226,8,17.42
			C8,22.615,12.226,26.84,17.42,26.84 M17.42,34.84C7.799,34.84,0,27.041,0,17.42S7.799,0,17.42,0s17.42,7.799,17.42,17.42
			S27.041,34.84,17.42,34.84z"/>
	</g>
	<g id="路径_1849" transform="translate(488.242 38.703)">
		<path fill="none" d="M14.127,28.254c7.802,0,14.127-6.325,14.127-14.127S21.929,0,14.127,0C6.325,0,0,6.325,0,14.127
			S6.325,28.254,14.127,28.254z"/>
		<path fill="#8682F8" d="M14.127,20.254c3.378,0,6.127-2.749,6.127-6.127S17.505,8,14.127,8C10.749,8,8,10.749,8,14.127
			S10.749,20.254,14.127,20.254 M14.127,28.254C6.325,28.254,0,21.929,0,14.127S6.325,0,14.127,0
			c7.802,0,14.127,6.325,14.127,14.127S21.929,28.254,14.127,28.254z"/>
	</g>
	<g id="组_804" transform="translate(304.951 309.979)">
		<path fill="#8682F8" d="M20.88,14.44H0c-2.209,0-4-1.791-4-4s1.791-4,4-4h20.88c2.209,0,4,1.791,4,4S23.089,14.44,20.88,14.44z"/>
		<path fill="#8682F8" d="M10.44,24.88c-2.209,0-4-1.791-4-4V0c0-2.209,1.791-4,4-4s4,1.791,4,4V20.88
			C14.44,23.089,12.649,24.88,10.44,24.88z"/>
	</g>
	<g id="组_801" transform="translate(30.074)">
		<path fill="#8682F8" d="M24.703,15.401H0c-2.209,0-4-1.791-4-4s1.791-4,4-4h24.703c2.209,0,4,1.791,4,4
			S26.912,15.401,24.703,15.401z"/>
		<path fill="#8682F8" d="M12.352,28.703c-2.209,0-4-1.791-4-4V0c0-2.209,1.791-4,4-4s4,1.791,4,4v24.703
			C16.352,26.912,14.561,28.703,12.352,28.703z"/>
	</g>
	<g id="组_803" transform="translate(111.846 353.703)">
		<g id="组_775" transform="translate(0 0)">
			<g id="组_770" transform="translate(20.007)">
				<path fill="#8682F8" d="M0,11.322c-2.209,0-4-1.791-4-4V0c0-2.209,1.791-4,4-4s4,1.791,4,4v7.322C4,9.531,2.209,11.322,0,11.322
					z"/>
				<path fill="#8682F8" d="M0,44.014c-2.209,0-4-1.791-4-4v-7.322c0-2.209,1.791-4,4-4s4,1.791,4,4v7.322
					C4,42.223,2.209,44.014,0,44.014z"/>
			</g>
			<g id="组_771" transform="translate(0 20.007) rotate(-90)">
				<path fill="#8682F8" d="M-4,7.322V0c0-2.209,1.791-4,4-4s4,1.791,4,4v7.322c0,2.209-1.791,4-4,4S-4,9.531-4,7.322z"/>
				<path fill="#8682F8" d="M-4,40.014v-7.321c0-2.209,1.791-4,4-4s4,1.791,4,4v7.321c0,2.209-1.791,4-4,4S-4,42.223-4,40.014z"/>
			</g>
			<g id="组_772" transform="translate(5.86 5.86) rotate(-45)">
				<path fill="#8682F8" d="M-2.829,10.15C-3.553,9.426-4,8.426-4,7.321V0c0-2.209,1.791-4,4-4c2.21,0,4,1.791,4,4v7.321
					c0,2.209-1.791,4-4,4C-1.105,11.322-2.105,10.874-2.829,10.15z"/>
				<path fill="#8682F8" d="M-2.829,42.843C-3.553,42.119-4,41.119-4,40.014v-7.322c0-2.209,1.791-4,4-4c2.21,0,4,1.791,4,4v7.322
					c0,2.209-1.791,4-4,4C-1.105,44.014-2.105,43.567-2.829,42.843z"/>
			</g>
			<g id="组_773" transform="translate(5.86 34.154) rotate(-135)">
				<path fill="#8682F8" d="M-2.828,29.863c0.724-0.724,1.724-1.171,2.829-1.171c2.209,0,4,1.791,4,4v7.322c0,2.21-1.791,4-4,4
					c-2.209,0-4-1.791-4-4v-7.322C-4,31.587-3.552,30.587-2.828,29.863z"/>
				<path fill="#8682F8" d="M-2.829-2.828C-2.105-3.552-1.105-4-0.001-4c2.21,0,4,1.791,4.001,4L4,7.321
					c0,2.208-1.791,4-3.999,4.001c-2.21,0-4-1.791-4.001-4L-4,0C-4.001-1.104-3.553-2.104-2.829-2.828z"/>
			</g>
		</g>
	</g>
	<g id="组_802" transform="translate(482.831 140.703)">
		<g id="组_775-2" transform="translate(0 0)">
			<g id="组_770-2" transform="translate(20.007)">
				<path fill="#8682F8" d="M0,11.322c-2.209,0-4-1.791-4-4V0c0-2.209,1.791-4,4-4s4,1.791,4,4v7.322C4,9.531,2.209,11.322,0,11.322
					z"/>
				<path fill="#8682F8" d="M0,44.014c-2.209,0-4-1.791-4-4v-7.322c0-2.209,1.791-4,4-4s4,1.791,4,4v7.322
					C4,42.223,2.209,44.014,0,44.014z"/>
			</g>
			<g id="组_771-2" transform="translate(0 20.007) rotate(-90)">
				<path fill="#8682F8" d="M-4,7.322V0c0-2.209,1.791-4,4-4s4,1.791,4,4v7.321c0,2.209-1.791,4-4,4S-4,9.531-4,7.322z"/>
				<path fill="#8682F8" d="M-4,40.014v-7.322c0-2.209,1.791-4,4-4s4,1.791,4,4v7.322c0,2.209-1.791,4-4,4S-4,42.223-4,40.014z"/>
			</g>
			<g id="组_772-2" transform="translate(5.86 5.86) rotate(-45)">
				<path fill="#8682F8" d="M-2.828,10.15C-3.552,9.427-3.999,8.427-4,7.322L-4,0c0-2.209,1.791-4,4-4
					c2.208-0.001,3.999,1.79,4,3.999l0,7.322c0,2.209-1.791,4-4,4C-1.104,11.322-2.105,10.874-2.828,10.15z"/>
				<path fill="#8682F8" d="M-2.828,42.843c-0.724-0.724-1.171-1.724-1.171-2.828l0-7.322c0-2.209,1.791-4,4-4
					c2.208-0.001,3.999,1.79,4,3.999l0,7.322c0,2.209-1.791,4-4,4C-1.104,44.014-2.104,43.566-2.828,42.843z"/>
			</g>
			<g id="组_773-2" transform="translate(5.86 34.154) rotate(-135)">
				<path fill="#8682F8" d="M-2.828,29.864C-2.105,29.14-1.104,28.692,0,28.693c2.209,0,4,1.791,4,4l0,7.322
					c-0.001,2.209-1.792,4.001-4,3.999c-2.209,0-4-1.791-4-4l0-7.322C-4,31.587-3.552,30.587-2.828,29.864z"/>
				<path fill="#8682F8" d="M-2.828-2.829C-2.104-3.552-1.104-4,0-4c2.209,0,4,1.791,4,4l0,7.322c-0.001,2.209-1.792,4.001-4,3.999
					c-2.209,0-4-1.791-4-4L-4,0C-3.999-1.105-3.552-2.105-2.828-2.829z"/>
			</g>
		</g>
	</g>
</g>
</svg>
