<?xml version="1.0" encoding="utf-8"?>
<!-- Generator: Adobe Illustrator 16.0.0, SVG Export Plug-In . SVG Version: 6.00 Build 0)  -->
<!DOCTYPE svg PUBLIC "-//W3C//DTD SVG 1.1//EN" "http://www.w3.org/Graphics/SVG/1.1/DTD/svg11.dtd">
<svg version="1.1" id="图层_1" xmlns="http://www.w3.org/2000/svg" xmlns:xlink="http://www.w3.org/1999/xlink" x="0px" y="0px"
	 width="960px" height="540px" viewBox="0 0 960 540" enable-background="new 0 0 960 540" xml:space="preserve">
<rect fill="none" width="960" height="540"/>
<rect x="-1" fill="#FFFFFF" width="960" height="540"/>
<g id="组_51">
	<path id="矩形_13" fill="#B6EDAE" d="M688.481,385.335l38.184,38.184c12.888,12.887,12.888,33.781,0,46.669l0,0
		c-12.887,12.887-33.781,12.887-46.669,0l-38.184-38.184c-12.888-12.888-12.888-33.782,0-46.669l0,0
		C654.7,372.447,675.595,372.447,688.481,385.335z"/>
	<path id="矩形_15" fill="#B6EDAE" d="M221.633,91.284L324.87,194.521c10.154,10.153,10.154,26.616,0,36.77l0,0
		c-10.153,10.153-26.616,10.153-36.77,0L184.863,128.053c-10.154-10.154-10.154-26.616,0-36.77l0,0
		C195.017,81.13,211.479,81.13,221.633,91.284z"/>
	<path id="矩形_16" fill="#B6EDAE" d="M309.633,58.284L412.87,161.521c10.154,10.153,10.154,26.616,0,36.77l0,0
		c-10.153,10.153-26.616,10.153-36.77,0L272.863,95.053c-10.154-10.154-10.154-26.616,0-36.77l0,0
		C283.017,48.13,299.479,48.13,309.633,58.284z"/>
	<path id="矩形_14" fill="#B6EDAE" d="M689.844,291.881l57.275,57.275c7.615,7.615,7.615,19.962,0,27.577l0,0
		c-7.615,7.615-19.962,7.615-27.577,0l-57.275-57.275c-7.615-7.615-7.615-19.962,0-27.577l0,0
		C669.882,284.266,682.229,284.266,689.844,291.881z"/>
	<circle id="椭圆_1" fill="#B6EDAE" cx="480" cy="270" r="242"/>
</g>
<g id="组_60">
	<path fill="#3D3D63" d="M556,463h-98c-2.761,0-5-2.238-5-5s2.239-5,5-5h98c2.762,0,5,2.238,5,5S558.762,463,556,463z"/>
	<path fill="#3D3D63" d="M589,487H480c-2.761,0-5-2.238-5-5s2.239-5,5-5h109c2.762,0,5,2.238,5,5S591.762,487,589,487z"/>
	<path fill="#3D3D63" d="M403,463h-67c-2.761,0-5-2.238-5-5s2.239-5,5-5h67c2.761,0,5,2.238,5,5S405.761,463,403,463z"/>
	<path fill="#3D3D63" d="M701,487h-56c-2.762,0-5-2.238-5-5s2.238-5,5-5h56c2.762,0,5,2.238,5,5S703.762,487,701,487z"/>
	<path fill="#3D3D63" d="M439,487H283c-2.761,0-5-2.238-5-5s2.239-5,5-5h156c2.761,0,5,2.238,5,5S441.761,487,439,487z"/>
	<path fill="#3D3D63" d="M431,463c-1.32,0-2.6-0.53-3.54-1.47c-0.93-0.931-1.46-2.211-1.46-3.53c0-1.32,0.53-2.601,1.46-3.54
		c0.93-0.93,2.22-1.46,3.54-1.46c1.32,0,2.61,0.53,3.54,1.46c0.93,0.939,1.46,2.22,1.46,3.54c0,1.319-0.53,2.6-1.46,3.53
		C433.61,462.47,432.32,463,431,463z"/>
	<path fill="#3D3D63" d="M621,487c-1.311,0-2.601-0.53-3.54-1.47c-0.93-0.931-1.46-2.211-1.46-3.53c0-1.32,0.53-2.601,1.46-3.54
		c0.93-0.93,2.22-1.46,3.54-1.46c1.319,0,2.609,0.53,3.54,1.46c0.93,0.939,1.46,2.229,1.46,3.54c0,1.319-0.53,2.6-1.46,3.53
		C623.6,486.47,622.31,487,621,487z"/>
</g>
<g id="组_59">
	<path fill="#B6EDAE" d="M802,312.213c-0.512,0-1.023-0.195-1.414-0.586l-21.213-21.213c-0.781-0.781-0.781-2.047,0-2.828
		l21.213-21.213c0.781-0.781,2.047-0.781,2.828,0l21.213,21.213c0.781,0.781,0.781,2.047,0,2.828l-21.213,21.213
		C803.023,312.018,802.512,312.213,802,312.213z M783.615,289L802,307.385L820.385,289L802,270.615L783.615,289z"/>
	<path fill="#B6EDAE" d="M228.101,218.9c-0.512,0-1.024-0.195-1.414-0.586l-9.899-9.899c-0.781-0.781-0.781-2.047,0-2.828
		l9.899-9.899c0.78-0.781,2.048-0.781,2.828,0l9.899,9.899c0.781,0.781,0.781,2.047,0,2.828l-9.899,9.899
		C229.125,218.705,228.613,218.9,228.101,218.9z M221.03,207l7.071,7.071l7.071-7.071l-7.071-7.071L221.03,207z"/>
	<path fill="#FFFFFF" d="M691,328.9c-0.53,0-1.039-0.211-1.414-0.586l-9.899-9.9c-0.781-0.781-0.781-2.047,0-2.828l9.899-9.899
		c0.781-0.781,2.047-0.781,2.828,0l9.899,9.899c0.781,0.781,0.781,2.047,0,2.828l-9.899,9.9C692.039,328.689,691.53,328.9,691,328.9
		z M683.929,317l7.071,7.072l7.071-7.072L691,309.929L683.929,317z"/>
	<path fill="#FFFFFF" d="M544,67.9c-0.512,0-1.023-0.195-1.414-0.586l-9.899-9.899c-0.781-0.781-0.781-2.047,0-2.828l9.899-9.899
		c0.781-0.781,2.047-0.781,2.828,0l9.899,9.899c0.781,0.781,0.781,2.047,0,2.828l-9.899,9.899C545.023,67.705,544.512,67.9,544,67.9
		z M536.929,56L544,63.071L551.071,56L544,48.93L536.929,56z"/>
	<g id="椭圆_9" transform="translate(176 391)">
		<circle fill="none" cx="27.5" cy="27.5" r="27.5"/>
		<path fill="#B6EDAE" d="M27.5,55C12.336,55,0,42.663,0,27.5S12.336,0,27.5,0S55,12.337,55,27.5S42.664,55,27.5,55z M27.5,4
			C14.542,4,4,14.542,4,27.5S14.542,51,27.5,51S51,40.458,51,27.5S40.458,4,27.5,4z"/>
	</g>
	<g id="椭圆_10" transform="translate(194 100)">
		<circle fill="none" cx="13.5" cy="13.5" r="13.5"/>
		<path fill="#FFFFFF" d="M13.5,27C6.056,27,0,20.944,0,13.5S6.056,0,13.5,0S27,6.056,27,13.5S20.944,27,13.5,27z M13.5,4
			C8.262,4,4,8.262,4,13.5S8.262,23,13.5,23s9.5-4.262,9.5-9.5S18.738,4,13.5,4z"/>
	</g>
	<g id="椭圆_11" transform="translate(306 437)">
		<circle fill="none" cx="13.5" cy="13.5" r="13.5"/>
		<path fill="#FFFFFF" d="M13.5,27C6.056,27,0,20.944,0,13.5S6.056,0,13.5,0S27,6.056,27,13.5S20.944,27,13.5,27z M13.5,4
			C8.262,4,4,8.262,4,13.5S8.262,23,13.5,23s9.5-4.262,9.5-9.5S18.738,4,13.5,4z"/>
	</g>
	<g id="椭圆_12" transform="translate(438 89)">
		<circle fill="none" cx="9.5" cy="9.5" r="9.5"/>
		<path fill="#FFFFFF" d="M9.5,19C4.262,19,0,14.738,0,9.5S4.262,0,9.5,0S19,4.262,19,9.5S14.738,19,9.5,19z M9.5,4
			C6.467,4,4,6.467,4,9.5S6.467,15,9.5,15S15,12.533,15,9.5S12.533,4,9.5,4z"/>
	</g>
	<g id="椭圆_13" transform="translate(662 34)">
		<circle fill="none" cx="15" cy="15" r="15"/>
		<path fill="#B6EDAE" d="M15,30C6.729,30,0,23.271,0,15S6.729,0,15,0s15,6.729,15,15S23.271,30,15,30z M15,4C8.935,4,4,8.935,4,15
			s4.935,11,11,11s11-4.935,11-11S21.065,4,15,4z"/>
	</g>
	<g id="椭圆_15" transform="translate(359 28)">
		<circle fill="none" cx="9" cy="9" r="9"/>
		<path fill="#B6EDAE" d="M9,18c-4.962,0-9-4.038-9-9s4.038-9,9-9s9,4.038,9,9S13.962,18,9,18z M9,4C6.243,4,4,6.243,4,9
			s2.243,5,5,5s5-2.243,5-5S11.757,4,9,4z"/>
	</g>
	<g id="椭圆_14" transform="translate(692 185)">
		<circle fill="none" cx="15" cy="15" r="15"/>
		<path fill="#FFFFFF" d="M15,30C6.729,30,0,23.271,0,15S6.729,0,15,0s15,6.729,15,15S23.271,30,15,30z M15,4C8.935,4,4,8.935,4,15
			s4.935,11,11,11s11-4.935,11-11S21.065,4,15,4z"/>
	</g>
</g>
<g id="矩形_86" transform="translate(310 270)">
	<rect fill="#FFF6E6" width="340" height="167"/>
	<path fill="#3D3D63" d="M330,167H10c-5.523,0-10-4.478-10-10V10C0,4.478,4.477,0,10,0h320c5.522,0,10,4.478,10,10v147
		C340,162.522,335.522,167,330,167z M20,147h300V20H20V147z"/>
</g>
<g id="矩形_87" transform="translate(360 100)">
	<rect fill="#CCCFD3" width="240" height="60"/>
	<path fill="#3D3D63" d="M230,60H10C4.477,60,0,55.523,0,50V10C0,4.477,4.477,0,10,0h220c5.522,0,10,4.477,10,10v40
		C240,55.523,235.522,60,230,60z M20,40h200V20H20V40z"/>
</g>
<g>
	<path id="路径_1633_1_" fill="#F4F1EC" d="M366.928,151h226.271l60.8,97.963h-347.9L366.928,151z"/>
	<path fill="#3D3D63" d="M653.998,258.963h-347.9c-3.63,0-6.975-1.967-8.739-5.14s-1.671-7.052,0.244-10.136l60.83-97.963
		c1.825-2.938,5.037-4.725,8.496-4.725h226.271c3.459,0,6.673,1.788,8.496,4.727l60.801,97.963
		c1.914,3.084,2.006,6.963,0.242,10.135C660.973,256.996,657.628,258.963,653.998,258.963z M324.079,238.963h311.944L587.635,161
		H372.489L324.079,238.963z"/>
</g>
<path fill="#F6716F" d="M303.5,245.835h64l0,0v27.544c0,17.001-13.783,30.784-30.785,30.784h-2.431
	c-17.002,0-30.785-13.783-30.785-30.784V245.835L303.5,245.835z"/>
<path fill="#3D3D63" d="M337,311h-3c-20.953,0-38-17.047-38-38v-14c0-11.028,8.972-20,20-20h39c11.028,0,20,8.972,20,20v14
	C375,293.953,357.953,311,337,311z M316,259v14c0,9.925,8.075,18,18,18h3c9.925,0,18-8.075,18-18v-14H316z"/>
<path fill="#69BAF9" d="M361.403,245.833h63.194l0,0v27.546c0,17.003-13.784,30.786-30.787,30.786h-1.62
	c-17.003,0-30.787-13.783-30.787-30.786V245.833L361.403,245.833z"/>
<path fill="#3D3D63" d="M394,311h-2c-20.953,0-38-17.047-38-38v-14c0-11.028,8.972-20,20-20h38c11.028,0,20,8.972,20,20v14
	C432,293.953,414.953,311,394,311z M374,259v14c0,9.925,8.075,18,18,18h2c9.925,0,18-8.075,18-18v-14H374z"/>
<path fill="#F6716F" d="M417.236,243.833h67.527l0,0v29.435c0,18.169-14.729,32.897-32.898,32.897h-1.731
	c-18.169,0-32.898-14.729-32.898-32.897V243.833L417.236,243.833z"/>
<path fill="#3D3D63" d="M452,311h-2c-20.953,0-38-17.047-38-38v-14c0-11.028,8.972-20,20-20h38c11.028,0,20,8.972,20,20v14
	C490,293.953,472.953,311,452,311z M432,259v14c0,9.925,8.075,18,18,18h2c9.925,0,18-8.075,18-18v-14H432z"/>
<path fill="#69BAF9" d="M476.833,245.308h64.334l0,0v28.043c0,17.31-14.032,31.342-31.342,31.342h-1.65
	c-17.31,0-31.342-14.032-31.342-31.342V245.308L476.833,245.308z"/>
<path fill="#3D3D63" d="M510,311h-2c-20.953,0-38-17.047-38-38v-14c0-11.028,8.972-20,20-20h38c11.028,0,20,8.972,20,20v14
	C548,293.953,530.953,311,510,311z M490,259v14c0,9.925,8.075,18,18,18h2c9.925,0,18-8.075,18-18v-14H490z"/>
<path fill="#F6716F" d="M533.236,243.833h67.527l0,0v29.435c0,18.169-14.729,32.897-32.898,32.897h-1.73
	c-18.17,0-32.898-14.729-32.898-32.897V243.833L533.236,243.833z"/>
<path fill="#3D3D63" d="M568,311h-2c-20.953,0-38-17.047-38-38v-14c0-11.028,8.972-20,20-20h38c11.028,0,20,8.972,20,20v14
	C606,293.953,588.953,311,568,311z M548,259v14c0,9.925,8.075,18,18,18h2c9.925,0,18-8.075,18-18v-14H548z"/>
<path fill="#69BAF9" d="M591.5,244.924h66l0,0v28.405c0,17.533-14.213,31.747-31.747,31.747h-2.506
	c-17.534,0-31.747-14.214-31.747-31.747V244.924L591.5,244.924z"/>
<path fill="#3D3D63" d="M626,311h-3c-20.953,0-38-17.047-38-38v-14c0-11.028,8.972-20,20-20h39c11.028,0,20,8.972,20,20v14
	C664,293.953,646.953,311,626,311z M605,259v14c0,9.925,8.075,18,18,18h3c9.925,0,18-8.075,18-18v-14H605z"/>
<rect x="381.5" y="143.526" transform="matrix(0.8594 0.5112 -0.5112 0.8594 157.4055 -172.0027)" fill="#3D3D63" width="20" height="113.447"/>
<rect x="437.5" y="143.561" transform="matrix(0.8606 0.5093 -0.5093 0.8606 164.5087 -199.9653)" fill="#3D3D63" width="20" height="113.877"/>
<rect x="495" y="142.564" transform="matrix(0.8682 0.4961 -0.4961 0.8682 165.2663 -224.3285)" fill="#3D3D63" width="20" height="112.872"/>
<rect x="550" y="144.054" transform="matrix(0.8758 0.4826 -0.4826 0.8758 166.0476 -245.4229)" fill="#3D3D63" width="20.001" height="111.893"/>
<rect x="596.5" y="192.759" transform="matrix(0.891 0.4539 -0.4539 0.891 167.0799 -251.0594)" fill="#3D3D63" width="19.999" height="59.481"/>
<path id="路径_1634" fill="#F6716F" d="M372.484,161h30.753L357,239h-33L372.484,161z"/>
<path id="路径_1635" fill="#69BAF9" d="M426.271,161h32.967L413,239h-33L426.271,161z"/>
<path id="路径_1637" fill="#69BAF9" d="M538.188,161H570.7L527,239l-33.346-0.024L538.188,161z"/>
<path id="路径_1638" fill="#F6716F" d="M590.406,165.547l18.688,29.937L586.917,239l-37.023,0.057L590.406,165.547z"/>
<path id="路径_1636" fill="#F6716F" d="M482.271,161h32.967l-44.209,78H436L482.271,161z"/>
<path id="路径_1639" fill="#69BAF9" d="M621.347,215.24L636.142,239h-26.912L621.347,215.24z"/>
<rect id="矩形_92" x="330" y="398" fill="#FCEEC3" width="300" height="19"/>
<g id="组_682" transform="translate(-3298 -1596)">
	<g id="组_680" transform="translate(3307 1603)">
		<rect x="332" y="372" fill="#C1C1C1" width="8" height="38"/>
		<rect x="354" y="380" fill="#C1C1C1" width="8" height="30"/>
		<rect x="376" y="388" fill="#C1C1C1" width="8" height="22"/>
		<rect x="398" y="396" fill="#C1C1C1" width="8" height="14"/>
	</g>
	<g id="组_679" transform="translate(3401 1603)">
		<rect x="332" y="372" fill="#C1C1C1" width="8" height="38"/>
		<rect x="354" y="380" fill="#C1C1C1" width="8" height="30"/>
		<rect x="376" y="388" fill="#C1C1C1" width="8" height="22"/>
		<rect x="398" y="396" fill="#C1C1C1" width="8" height="14"/>
	</g>
</g>
<g id="组_679-2" transform="translate(204 7)">
	<rect x="332" y="372" fill="#C1C1C1" width="8" height="38"/>
	<rect x="354" y="380" fill="#C1C1C1" width="8" height="30"/>
	<rect x="376" y="388" fill="#C1C1C1" width="8" height="22"/>
	<rect x="398" y="396" fill="#C1C1C1" width="8" height="14"/>
</g>
<rect x="491.236" y="324.167" fill="#92D9F5" width="113.527" height="68.666"/>
<path fill="#3D3D63" d="M602,396H494c-4.418,0-8-3.582-8-8v-59c0-4.418,3.582-8,8-8h108c4.418,0,8,3.582,8,8v59
	C610,392.418,606.418,396,602,396z M502,380h92v-43h-92V380z"/>
<path fill="#3D3D63" d="M614.5,396h-132c-4.418,0-8-3.582-8-8s3.582-8,8-8h132c4.418,0,8,3.582,8,8S618.918,396,614.5,396z"/>
<path fill="#D4FEFF" d="M538.5,366h-24c-3.866,0-7-3.134-7-7s3.134-7,7-7h24c3.866,0,7,3.134,7,7S542.366,366,538.5,366z"/>
<rect x="361.714" y="326.333" fill="#F1A430" width="70.572" height="101.334"/>
<path fill="#3D3D63" d="M428,433h-62c-4.418,0-8-3.582-8-8v-96c0-4.418,3.582-8,8-8h62c4.418,0,8,3.582,8,8v96
	C436,429.418,432.418,433,428,433z M374,417h46v-80h-46V417z"/>
<circle id="椭圆_323" fill="#3D3D63" cx="405" cy="381" r="8"/>
</svg>
