<?xml version="1.0" encoding="utf-8"?>
<!-- Generator: Adobe Illustrator 16.0.0, SVG Export Plug-In . SVG Version: 6.00 Build 0)  -->
<!DOCTYPE svg PUBLIC "-//W3C//DTD SVG 1.1//EN" "http://www.w3.org/Graphics/SVG/1.1/DTD/svg11.dtd">
<svg version="1.1" id="图层_1" xmlns="http://www.w3.org/2000/svg" xmlns:xlink="http://www.w3.org/1999/xlink" x="0px" y="0px"
	 width="960px" height="540px" viewBox="0 0 960 540" enable-background="new 0 0 960 540" xml:space="preserve">
<g id="组_769" transform="translate(0 2.15)">
	<path id="路径_1806" opacity="0.2" fill="#69BAF9" enable-background="new    " d="M820,509.85c0-187.777-152.223-340-340-340
		c-187.777,0-340,152.223-340,340"/>
	<path id="路径_1807" opacity="0.5" fill="#69BAF9" enable-background="new    " d="M727.618,509.85
		c0-136.813-110.908-247.72-247.719-247.72c-136.812,0-247.72,110.908-247.72,247.72"/>
	<path id="路径_1808" opacity="0.7" fill="#69BAF9" enable-background="new    " d="M635.6,509.85
		c0.219-85.755-69.122-155.451-154.878-155.669c-85.755-0.218-155.45,69.123-155.669,154.878c0,0.264,0,0.527,0,0.791"/>
</g>
<g id="组_746" transform="translate(0 33)">
	<path fill="#3D3D63" d="M577,479H468c-2.761,0-5-2.238-5-5s2.239-5,5-5h109c2.762,0,5,2.238,5,5S579.762,479,577,479z"/>
	<path fill="#3D3D63" d="M689,479h-56c-2.762,0-5-2.238-5-5s2.238-5,5-5h56c2.762,0,5,2.238,5,5S691.762,479,689,479z"/>
	<path fill="#3D3D63" d="M427,479H271c-2.761,0-5-2.238-5-5s2.239-5,5-5h156c2.761,0,5,2.238,5,5S429.761,479,427,479z"/>
	<path fill="#3D3D63" d="M609,479c-1.311,0-2.601-0.53-3.54-1.47c-0.93-0.931-1.46-2.211-1.46-3.53c0-1.32,0.53-2.61,1.46-3.54
		S607.68,469,609,469c1.319,0,2.609,0.53,3.54,1.46c0.93,0.93,1.46,2.22,1.46,3.54c0,1.319-0.53,2.6-1.46,3.53
		C611.6,478.47,610.319,479,609,479z"/>
</g>
<path fill="#3D3D63" d="M718,482H337c-5.523,0-10-4.478-10-10s4.477-10,10-10h381c5.522,0,10,4.478,10,10S723.522,482,718,482z"/>
<path fill="#3D3D63" d="M309,482h-44c-5.523,0-10-4.478-10-10s4.477-10,10-10h44c5.523,0,10,4.478,10,10S314.523,482,309,482z"/>
<path fill="#B6BDC6" d="M390,416h228c22.092,0,40,17.908,40,40l-9.75,14.25l-5.75,7l-280.75-0.5L356.5,471l-6.5-15
	C350,433.908,367.908,416,390,416z"/>
<path fill="#3D3D63" d="M642,482H366c-8.822,0-16-7.178-16-16v-10c0-22.056,17.944-40,40-40h228c22.056,0,40,17.944,40,40v10
	C658,474.822,650.822,482,642,482z M390,432c-13.233,0-24,10.767-24,24v10h276c0.007,0,0.01,0,0.01,0L642,456
	c0-13.233-10.767-24-24-24H390z"/>
<path fill="#3D3D63" d="M505.844,411.107c-18.395,0-36.866-2.993-54.812-9.022c-89.693-30.137-138.147-127.624-108.012-217.317
	c5.602-16.673,13.701-32.33,24.072-46.534l22.614,16.511c-8.679,11.887-15.457,24.988-20.145,38.941
	c-25.218,75.058,15.33,156.639,90.388,181.857c75.06,25.216,156.64-15.33,181.856-90.389l26.542,8.918
	c-14.598,43.449-45.242,78.613-86.288,99.014C557.968,405.061,531.984,411.107,505.844,411.107z"/>
<path fill="#FFFFFF" d="M502,323h3c38.66,0,70,31.34,70,70l-4,73.5l-9,8.75l-115,1l-9.25-7.5L432,393C432,354.34,463.34,323,502,323
	z"/>
<path fill="#3D3D63" d="M559,482H448c-8.822,0-16-7.178-16-16v-73c0-38.598,31.402-70,70-70h3c38.598,0,70,31.402,70,70v73
	C575,474.822,567.822,482,559,482z M502,339c-29.776,0-54,24.225-54,54v73h111c0.007,0,0.01,0,0.01,0L559,393
	c0-29.775-24.225-54-54-54H502z"/>
<g id="椭圆_332" transform="translate(42.345 49.655)">
	<circle fill="#B6BDC6" cx="461.155" cy="352.845" r="29.5"/>
	<path fill="#3D3D63" d="M461.155,382.345c-16.267,0-29.5-13.233-29.5-29.5s13.233-29.5,29.5-29.5s29.5,13.233,29.5,29.5
		S477.422,382.345,461.155,382.345z M461.155,339.345c-7.444,0-13.5,6.056-13.5,13.5s6.056,13.5,13.5,13.5s13.5-6.056,13.5-13.5
		S468.599,339.345,461.155,339.345z"/>
</g>
<g id="矩形_133" transform="translate(546 283)">
	<path fill="#B6BDC6" d="M24,0h112c13.255,0,24,10.745,24,24l0,0c0,13.255-10.745,24-24,24H24C10.745,48,0,37.255,0,24l0,0
		C0,10.745,10.745,0,24,0z"/>
	<path fill="#3D3D63" d="M136,48H24C10.767,48,0,37.233,0,24S10.767,0,24,0h112c13.233,0,24,10.767,24,24S149.233,48,136,48z M24,16
		c-4.411,0-8,3.589-8,8s3.589,8,8,8h112c4.411,0,8-3.589,8-8s-3.589-8-8-8H24z"/>
</g>
<g id="组_760" transform="matrix(0.438, -0.899, 0.899, 0.438, 218.029, 170.374)">
	<g id="矩形_135" transform="translate(50.661 0)">
		<path fill="#B6BDC6" d="M14,0l57.904,0c7.732,0,14,6.268,14,14l0,104.159c0,7.732-6.268,14-14,14l-57.904,0
			c-7.732,0-14-6.268-14-14L0,14C0,6.268,6.268,0,14,0z"/>
		<path fill="#3D3D63" d="M1.412,124.289C0.488,122.393,0,120.273,0,118.159L0,14C0.001,6.281,6.281,0.001,13.998,0L71.904,0
			C77.221,0,82.162,3.089,84.492,7.87c0.924,1.897,1.412,4.017,1.412,6.131l0,104.158c0,7.72-6.28,14-14,14L14,132.159
			C8.682,132.159,3.741,129.069,1.412,124.289z M20,20l0,92.16l45.905-0.001l0-92.159L20,20z"/>
	</g>
	<g id="矩形_134" transform="translate(35.243 37.445)">
		<path fill="#FFFFFF" d="M14,0l88.741,0c7.732,0,14,6.268,14,14l0,161.428c0,7.732-6.268,14-14,14l-88.741,0
			c-7.732,0-14-6.269-14-14.001L0,14C0,6.268,6.268,0,14,0z"/>
		<path fill="#3D3D63" d="M1.413,181.557C0.489,179.662,0,177.542,0,175.428L0,14c0-7.72,6.28-14,14-14l88.741,0
			c5.317,0,10.258,3.089,12.588,7.87c0.924,1.896,1.412,4.016,1.412,6.129l0,161.428c0,7.719-6.28,14-14,14l-88.741,0
			C8.683,189.428,3.742,186.338,1.413,181.557z M20,20l0,149.429l76.741,0l0-149.428L20,20z"/>
	</g>
	<g id="矩形_115" transform="translate(0 190.53)">
		<path fill="#B6BDC6" d="M33.04,0l121.146,0c18.248,0.001,33.04,14.793,33.04,33.04l0,0c0,18.247-14.793,33.04-33.04,33.04
			L33.04,66.08C14.792,66.08,0,51.287,0,33.04l0,0C0,14.793,14.793,0,33.04,0z"/>
		<path fill="#3D3D63" d="M3.326,47.498C1.119,42.969,0,38.105,0,33.04c0-8.825,3.436-17.122,9.677-23.363S24.215,0,33.041,0
			l121.145,0C166.737,0,178.4,7.293,183.9,18.581c2.207,4.53,3.326,9.395,3.326,14.459c0,18.218-14.821,33.04-33.039,33.04
			l-121.146,0C20.489,66.08,8.825,58.786,3.326,47.498z M165.921,27.341C163.715,22.813,159.218,20,154.186,20L33.04,20
			c-3.484,0-6.758,1.356-9.221,3.819C21.356,26.282,20,29.557,20,33.04c0,2.004,0.439,3.921,1.306,5.699
			c2.206,4.529,6.703,7.342,11.735,7.342l121.146-0.001c7.191,0,13.04-5.849,13.04-13.039
			C167.226,31.036,166.787,29.119,165.921,27.341z"/>
	</g>
</g>
<rect id="矩形_137" x="448" y="443" fill="#B6BDC6" width="111" height="23"/>
<rect id="矩形_138" x="292.353" y="152.971" transform="matrix(-0.899 -0.438 0.438 -0.899 609.4474 469.637)" fill="#B6BDC6" width="133.061" height="23.128"/>
<g id="组_759" transform="translate(288.782 150.619) rotate(-8)">
	<g id="椭圆_333" transform="translate(0 0)">
		
			<ellipse transform="matrix(-0.9903 -0.1392 0.1392 -0.9903 93.7792 107.8797)" fill="#B6BDC6" cx="50.661" cy="50.661" rx="50.661" ry="50.661"/>
		<path fill="#3D3D63" d="M43.556,100.826C18.725,97.337,0,75.77,0,50.661c0-13.532,5.27-26.254,14.839-35.823
			C24.407,5.269,37.129,0,50.661,0c2.376,0,4.766,0.167,7.105,0.496c24.832,3.49,43.556,25.056,43.556,50.165
			c0,13.532-5.27,26.254-14.839,35.823c-9.568,9.569-22.291,14.838-35.823,14.838C48.285,101.322,45.894,101.155,43.556,100.826z
			 M55.539,16.34C53.936,16.115,52.295,16,50.661,16c-9.258,0-17.963,3.605-24.509,10.152S16,41.403,16,50.661
			c0,17.18,12.804,31.935,29.782,34.321c1.603,0.225,3.244,0.34,4.878,0.339c9.258,0,17.963-3.605,24.509-10.152
			c6.547-6.547,10.151-15.251,10.151-24.509C85.322,33.481,72.519,18.726,55.539,16.34z"/>
	</g>
	
		<ellipse id="椭圆_334" transform="matrix(-0.9903 -0.1392 0.1392 -0.9903 93.7792 107.8797)" fill="#3D3D63" cx="50.661" cy="50.661" rx="20.925" ry="20.925"/>
</g>
<g id="组_799">
	<g id="路径_1812" transform="translate(657.205 143.595)">
		<path fill="none" d="M16.95,0C26.312,0,33.9,7.589,33.9,16.95S26.312,33.9,16.95,33.9S0,26.311,0,16.95S7.589,0,16.95,0z"/>
		<path fill="#8682F8" d="M16.949,8C12.015,8,8,12.015,8,16.95c0,4.935,4.015,8.949,8.949,8.949c4.936,0,8.95-4.015,8.95-8.949
			C25.899,12.015,21.885,8,16.949,8 M16.949,0c9.361,0,16.95,7.588,16.95,16.95c0,9.361-7.589,16.949-16.95,16.949
			C7.589,33.899,0,26.311,0,16.95C0,7.589,7.589,0,16.949,0z"/>
	</g>
	<g id="路径_1814" transform="translate(266.155 172.515)">
		<path fill="none" d="M20.356,0c11.242,0,20.356,9.114,20.356,20.356s-9.114,20.356-20.356,20.356C9.114,40.712,0,31.598,0,20.356
			S9.114,0,20.356,0z"/>
		<path fill="#8682F8" d="M20.356,8C13.543,8,8,13.543,8,20.356s5.543,12.356,12.356,12.356s12.355-5.543,12.355-12.356
			S27.169,8,20.356,8 M20.356,0c11.242,0,20.355,9.113,20.355,20.355s-9.113,20.356-20.355,20.356S0,31.598,0,20.356
			S9.114,0,20.356,0z"/>
	</g>
	<g id="路径_1813" transform="translate(708.396 317.116)">
		<path fill="none" d="M14.127,0c7.802,0,14.127,6.325,14.127,14.127s-6.325,14.127-14.127,14.127C6.325,28.254,0,21.929,0,14.127
			S6.325,0,14.127,0z"/>
		<path fill="#8682F8" d="M14.127,8C10.749,8,8,10.749,8,14.127s2.748,6.127,6.127,6.127c3.378,0,6.127-2.749,6.127-6.127
			S17.505,8,14.127,8 M14.127,0c7.802,0,14.127,6.325,14.127,14.127s-6.325,14.127-14.127,14.127C6.325,28.254,0,21.929,0,14.127
			S6.325,0,14.127,0z"/>
	</g>
	<g id="组_779">
		<path fill="#8682F8" d="M550.891,76.169h-32.691c-2.209,0-4-1.791-4-4s1.791-4,4-4h32.691c2.209,0,4,1.791,4,4
			S553.1,76.169,550.891,76.169z"/>
		<path fill="#8682F8" d="M534.545,92.515c-2.209,0-4-1.791-4-4V55.823c0-2.209,1.791-4,4-4s4,1.791,4,4v32.692
			C538.545,90.724,536.754,92.515,534.545,92.515z"/>
	</g>
	<g id="组_780">
		<path fill="#8682F8" d="M248.932,395.6h-24.703c-2.209,0-4-1.791-4-4s1.791-4,4-4h24.703c2.209,0,4,1.791,4,4
			S251.141,395.6,248.932,395.6z"/>
		<path fill="#8682F8" d="M236.581,407c-2.209,0-4-1.791-4-4v-24.703c0-2.209,1.791-4,4-4s4,1.791,4,4V403
			C240.581,405.209,238.79,407,236.581,407z"/>
	</g>
	<g id="组_776" transform="translate(566.13 203.519)">
		<g id="组_775" transform="translate(0 0)">
			<g id="组_770" transform="translate(20.007 0)">
				<path fill="#8682F8" d="M0,44.014c-2.209,0-4-1.791-4-4v-7.322c0-2.209,1.791-4,4-4s4,1.791,4,4v7.322
					C4,42.223,2.209,44.014,0,44.014z"/>
				<path fill="#8682F8" d="M0,11.322c-2.209,0-4-1.791-4-4V0c0-2.209,1.791-4,4-4s4,1.791,4,4v7.322C4,9.531,2.209,11.322,0,11.322
					z"/>
			</g>
			<g id="组_771" transform="translate(40.014 20.007) rotate(90)">
				<path fill="#8682F8" d="M4,32.692v7.322c0,2.209-1.791,4-4,4s-4-1.791-4-4v-7.322c0-2.209,1.791-4,4-4S4,30.483,4,32.692z"/>
				<path fill="#8682F8" d="M4,0v7.321c0,2.209-1.791,4-4,4s-4-1.791-4-4V0c0-2.209,1.791-4,4-4S4-2.209,4,0z"/>
			</g>
			<g id="组_772" transform="translate(34.154 5.86) rotate(45)">
				<path fill="#8682F8" d="M2.829,42.842c-0.724,0.724-1.724,1.171-2.828,1.171c-2.209,0-4-1.791-4.001-3.999l-0.001-7.322
					c0-2.21,1.791-4,4-4.001c2.209,0,4,1.791,4.001,3.999l0.001,7.322C4.001,41.118,3.553,42.119,2.829,42.842z"/>
				<path fill="#8682F8" d="M2.828,10.151C2.105,10.874,1.104,11.323,0,11.322c-2.21,0-4-1.791-4-4v-7.322c-0.001-2.208,1.792-4,4-4
					c2.21,0,4,1.791,4,4v7.322C4,8.426,3.552,9.427,2.828,10.151z"/>
			</g>
			<g id="组_773" transform="translate(34.154 34.154) rotate(135)">
				<path fill="#8682F8" d="M2.828-2.828C3.552-2.105,3.999-1.105,4,0l0,7.322c0,2.209-1.791,4-4,4c-2.208,0.001-3.999-1.79-4-3.999
					L-4,0c0-2.209,1.791-4,4-4C1.104-4,2.105-3.552,2.828-2.828z"/>
				<path fill="#8682F8" d="M2.829,29.864C3.552,30.588,4,31.588,4,32.692l0,7.321c0,2.209-1.791,4-4,4
					c-2.209-0.001-4.001-1.792-3.999-4l0-7.321c0-2.209,1.791-4,4-4C1.105,28.693,2.105,29.14,2.829,29.864z"/>
			</g>
		</g>
	</g>
</g>
</svg>
