<?xml version="1.0" encoding="utf-8"?>
<!-- Generator: Adobe Illustrator 16.0.0, SVG Export Plug-In . SVG Version: 6.00 Build 0)  -->
<!DOCTYPE svg PUBLIC "-//W3C//DTD SVG 1.1//EN" "http://www.w3.org/Graphics/SVG/1.1/DTD/svg11.dtd">
<svg version="1.1" id="图层_1" xmlns="http://www.w3.org/2000/svg" xmlns:xlink="http://www.w3.org/1999/xlink" x="0px" y="0px"
	 width="960px" height="540px" viewBox="0 0 960 540" enable-background="new 0 0 960 540" xml:space="preserve">
<rect fill="none" width="960" height="540"/>
<rect fill="#FFFFFF" width="960" height="540"/>
<path id="矩形_16" fill="#B9EDB1" d="M309.633,58.284L412.87,161.521c10.154,10.153,10.154,26.616,0,36.77l0,0
	c-10.153,10.153-26.616,10.153-36.77,0L272.863,95.053c-10.154-10.154-10.154-26.616,0-36.77l0,0
	C283.017,48.13,299.479,48.13,309.633,58.284z"/>
<circle id="椭圆_1" fill="#B6EDAE" cx="480" cy="270" r="242"/>
<path id="矩形_13" fill="#B9EDB1" d="M688.481,385.335l38.184,38.184c12.888,12.887,12.888,33.781,0,46.669l0,0
	c-12.887,12.887-33.781,12.887-46.669,0l-38.184-38.184c-12.888-12.888-12.888-33.782,0-46.669l0,0
	C654.7,372.447,675.595,372.447,688.481,385.335z"/>
<path id="矩形_15" fill="#B9EDB1" d="M221.633,91.284L324.87,194.521c10.154,10.153,10.154,26.616,0,36.77l0,0
	c-10.153,10.153-26.616,10.153-36.77,0L184.863,128.053c-10.154-10.154-10.154-26.616,0-36.77l0,0
	C195.017,81.13,211.479,81.13,221.633,91.284z"/>
<path id="矩形_14" fill="#B9EDB1" d="M689.844,291.881l57.275,57.275c7.615,7.615,7.615,19.962,0,27.577l0,0
	c-7.615,7.615-19.962,7.615-27.577,0l-57.275-57.275c-7.615-7.615-7.615-19.962,0-27.577l0,0
	C669.882,284.266,682.229,284.266,689.844,291.881z"/>
<path fill="#3D3D63" d="M498,469h-98c-2.761,0-5-2.238-5-5s2.239-5,5-5h98c2.762,0,5,2.238,5,5S500.762,469,498,469z"/>
<path fill="#3D3D63" d="M666,493H521c-2.762,0-5-2.238-5-5s2.238-5,5-5h145c2.762,0,5,2.238,5,5S668.762,493,666,493z"/>
<path fill="#3D3D63" d="M361,469h-67c-2.761,0-5-2.238-5-5s2.239-5,5-5h67c2.761,0,5,2.238,5,5S363.761,469,361,469z"/>
<path fill="#3D3D63" d="M541,469h-26c-2.762,0-5-2.238-5-5s2.238-5,5-5h26c2.762,0,5,2.238,5,5S543.762,469,541,469z"/>
<path fill="#3D3D63" d="M381,469c-1.32,0-2.6-0.53-3.54-1.46c-0.93-0.94-1.46-2.23-1.46-3.54c0-1.311,0.53-2.601,1.46-3.54
	c0.93-0.93,2.22-1.46,3.54-1.46c1.32,0,2.61,0.53,3.54,1.46c0.93,0.939,1.46,2.229,1.46,3.54c0,1.31-0.53,2.6-1.46,3.54
	C383.61,468.47,382.32,469,381,469z"/>
<g id="组_687">
	<path fill="#B9EDB1" d="M802,312.213c-0.512,0-1.023-0.195-1.414-0.586l-21.213-21.213c-0.781-0.781-0.781-2.047,0-2.828
		l21.213-21.213c0.781-0.781,2.047-0.781,2.828,0l21.213,21.213c0.781,0.781,0.781,2.047,0,2.828l-21.213,21.213
		C803.023,312.018,802.512,312.213,802,312.213z M783.615,289L802,307.385L820.385,289L802,270.615L783.615,289z"/>
	<path fill="#B9EDB1" d="M228.101,218.899c-0.512,0-1.024-0.195-1.414-0.586l-9.899-9.899c-0.781-0.781-0.781-2.047,0-2.828
		l9.899-9.899c0.78-0.781,2.048-0.781,2.828,0l9.899,9.899c0.781,0.781,0.781,2.047,0,2.828l-9.899,9.899
		C229.125,218.704,228.613,218.899,228.101,218.899z M221.03,207l7.071,7.071l7.071-7.071l-7.071-7.071L221.03,207z"/>
	<path fill="#FFFFFF" d="M691,328.9c-0.53,0-1.039-0.211-1.414-0.586l-9.899-9.9c-0.781-0.781-0.781-2.047,0-2.828l9.899-9.899
		c0.781-0.781,2.047-0.781,2.828,0l9.899,9.899c0.781,0.781,0.781,2.047,0,2.828l-9.899,9.9C692.039,328.689,691.53,328.9,691,328.9
		z M683.929,317l7.071,7.072l7.071-7.072L691,309.929L683.929,317z"/>
	<path fill="#FFFFFF" d="M544,67.9c-0.512,0-1.023-0.195-1.414-0.586l-9.899-9.899c-0.781-0.781-0.781-2.047,0-2.828l9.899-9.899
		c0.781-0.781,2.047-0.781,2.828,0l9.899,9.899c0.781,0.781,0.781,2.047,0,2.828l-9.899,9.899C545.023,67.705,544.512,67.9,544,67.9
		z M536.929,56L544,63.071L551.071,56L544,48.93L536.929,56z"/>
	<g id="椭圆_9" transform="translate(176 391)">
		<circle fill="#FFFFFF" cx="27.5" cy="27.5" r="27.5"/>
		<path fill="#B9EDB1" d="M27.5,55C12.336,55,0,42.663,0,27.5S12.336,0,27.5,0S55,12.337,55,27.5S42.664,55,27.5,55z M27.5,4
			C14.542,4,4,14.542,4,27.5S14.542,51,27.5,51S51,40.458,51,27.5S40.458,4,27.5,4z"/>
	</g>
	<g id="椭圆_10" transform="translate(194 100)">
		<circle fill="none" cx="13.5" cy="13.5" r="13.5"/>
		<path fill="#FFFFFF" d="M13.5,27C6.056,27,0,20.944,0,13.5S6.056,0,13.5,0S27,6.056,27,13.5S20.944,27,13.5,27z M13.5,4
			C8.262,4,4,8.262,4,13.5S8.262,23,13.5,23s9.5-4.262,9.5-9.5S18.738,4,13.5,4z"/>
	</g>
	<g id="椭圆_12" transform="translate(438 89)">
		<circle fill="none" cx="9.5" cy="9.5" r="9.5"/>
		<path fill="#FFFFFF" d="M9.5,19C4.262,19,0,14.738,0,9.5S4.262,0,9.5,0S19,4.262,19,9.5S14.738,19,9.5,19z M9.5,4
			C6.467,4,4,6.467,4,9.5S6.467,15,9.5,15S15,12.533,15,9.5S12.533,4,9.5,4z"/>
	</g>
	<g id="椭圆_13" transform="translate(662 34)">
		<circle fill="none" cx="15" cy="15" r="15"/>
		<path fill="#B9EDB1" d="M15,30C6.729,30,0,23.271,0,15S6.729,0,15,0s15,6.729,15,15S23.271,30,15,30z M15,4C8.935,4,4,8.935,4,15
			s4.935,11,11,11s11-4.935,11-11S21.065,4,15,4z"/>
	</g>
	<g id="椭圆_15" transform="translate(359 28)">
		<circle fill="none" cx="9" cy="9" r="9"/>
		<path fill="#B9EDB1" d="M9,18c-4.962,0-9-4.038-9-9s4.038-9,9-9s9,4.038,9,9S13.962,18,9,18z M9,4C6.243,4,4,6.243,4,9
			s2.243,5,5,5s5-2.243,5-5S11.757,4,9,4z"/>
	</g>
	<g id="椭圆_14" transform="translate(692 185)">
		<circle fill="none" cx="15" cy="15" r="15"/>
		<path fill="#FFFFFF" d="M15,30C6.729,30,0,23.271,0,15S6.729,0,15,0s15,6.729,15,15S23.271,30,15,30z M15,4C8.935,4,4,8.935,4,15
			s4.935,11,11,11s11-4.935,11-11S21.065,4,15,4z"/>
	</g>
</g>
<g id="矩形_99" transform="translate(296 180)">
	<path fill="#69BAF9" d="M24,0h172c13.255,0,24,10.745,24,24v193c0,22.092-17.908,40-40,40H40c-22.091,0-40-17.908-40-40V24
		C0,10.745,10.745,0,24,0z"/>
	<path fill="#3D3D63" d="M180,257H40c-22.056,0-40-17.944-40-40V24C0,10.766,10.766,0,24,0h172c13.233,0,24,10.766,24,24v193
		C220,239.056,202.056,257,180,257z M24,20c-2.206,0-4,1.794-4,4v193c0,11.028,8.972,20,20,20h140c11.028,0,20-8.972,20-20V24
		c0-2.206-1.794-4-4-4H24z"/>
</g>
<g id="矩形_100" transform="translate(296 99)">
	<path fill="#E1E8F2" d="M24,0h172c13.255,0,24,10.745,24,24v24c0,13.255-10.745,24-24,24H24C10.745,72,0,61.255,0,48V24
		C0,10.745,10.745,0,24,0z"/>
	<path fill="#3D3D63" d="M196,72H24C10.766,72,0,61.234,0,48V24C0,10.766,10.766,0,24,0h172c13.233,0,24,10.766,24,24v24
		C220,61.234,209.233,72,196,72z M24,20c-2.206,0-4,1.794-4,4v24c0,2.206,1.794,4,4,4h172c2.206,0,4-1.794,4-4V24
		c0-2.206-1.794-4-4-4H24z"/>
</g>
<g id="矩形_103" transform="translate(296 99)">
	<path fill="#E1E8F2" d="M24,0h172c13.255,0,24,10.745,24,24v24c0,13.255-10.745,24-24,24H24C10.745,72,0,61.255,0,48V24
		C0,10.745,10.745,0,24,0z"/>
	<path fill="#3D3D63" d="M196,72H24C10.766,72,0,61.234,0,48V24C0,10.766,10.766,0,24,0h172c13.233,0,24,10.766,24,24v24
		C220,61.234,209.233,72,196,72z M24,20c-2.206,0-4,1.794-4,4v24c0,2.206,1.794,4,4,4h172c2.206,0,4-1.794,4-4V24
		c0-2.206-1.794-4-4-4H24z"/>
</g>
<g id="矩形_102" transform="translate(320 151)">
	<rect fill="#E1E8F2" width="172" height="49"/>
	<path fill="#3D3D63" d="M172,49H0V0h172V49z M20,29h132v-9H20V29z"/>
</g>
<rect x="323.5" y="101.5" fill="#3D3D63" width="16" height="68"/>
<rect x="353.5" y="101.5" fill="#3D3D63" width="16" height="68"/>
<rect x="383.5" y="101.5" fill="#3D3D63" width="16" height="68"/>
<rect x="413.5" y="101.5" fill="#3D3D63" width="16" height="68"/>
<rect x="443.5" y="101.5" fill="#3D3D63" width="16" height="68"/>
<rect x="473.5" y="101.5" fill="#3D3D63" width="16" height="68"/>
<g id="矩形_104" transform="translate(331 222)">
	<path fill="#F4F1EC" d="M24,0h101c13.255,0,24,10.745,24,24v125c0,13.255-10.745,24-24,24H24c-13.255,0-24-10.745-24-24V24
		C0,10.745,10.745,0,24,0z"/>
	<path fill="#3D3D63" d="M125,173H24c-13.233,0-24-10.767-24-24V24C0,10.767,10.767,0,24,0h101c13.233,0,24,10.767,24,24v125
		C149,162.233,138.233,173,125,173z M24,18c-3.309,0-6,2.691-6,6v125c0,3.309,2.691,6,6,6h101c3.309,0,6-2.691,6-6V24
		c0-3.309-2.691-6-6-6H24z"/>
</g>
<path fill="#3D3D63" d="M425.903,297h-40c-4.418,0-8-3.582-8-8s3.582-8,8-8h40c4.418,0,8,3.582,8,8S430.322,297,425.903,297z"/>
<path fill="#3D3D63" d="M438.5,354h-66.597c-4.418,0-8-3.582-8-8s3.582-8,8-8H438.5c4.418,0,8,3.582,8,8S442.918,354,438.5,354z"/>
<path fill="#3D3D63" d="M406,317c-4.418,0-8-3.582-8-8v-40c0-4.418,3.582-8,8-8s8,3.582,8,8v40C414,313.418,410.418,317,406,317z"/>
<g>
	<path id="联合_10_1_" fill="#FFFFFF" d="M572.742,392.371V171.937L550,160.924V135h94v257.371
		C644,412.049,628.048,428,608.371,428C588.693,428,572.742,412.049,572.742,392.371z"/>
	<path fill="#3D3D63" d="M608.371,437c-24.608,0-44.629-20.021-44.629-44.629V177.579l-17.665-8.555
		c-3.104-1.503-5.077-4.65-5.077-8.1V135c0-4.971,4.029-9,9-9h94c4.971,0,9,4.029,9,9v257.371C653,416.979,632.979,437,608.371,437z
		 M559,155.282l17.665,8.555c3.104,1.503,5.077,4.65,5.077,8.1v220.434c0,14.684,11.945,26.629,26.629,26.629
		S635,407.055,635,392.371V144h-76V155.282z"/>
</g>
<g>
	<path id="矩形_108_1_" fill="#69BAF9" d="M574,222h70l0,0v171c0,19.33-15.67,35-35,35l0,0l0,0c-19.33,0-35-15.67-35-35l0,0V222
		L574,222z"/>
	<path fill="#3D3D63" d="M609,437c-24.262,0-44-19.738-44-44V222c0-4.971,4.029-9,9-9h70c4.971,0,9,4.029,9,9v171
		C653,417.262,633.262,437,609,437z M583,231v162c0,14.337,11.663,26,26,26s26-11.663,26-26V231H583z"/>
</g>
<path fill="#3D3D63" d="M597,269h-25c-4.418,0-8-3.582-8-8s3.582-8,8-8h25c4.418,0,8,3.582,8,8S601.418,269,597,269z"/>
<path fill="#3D3D63" d="M597,305h-25c-4.418,0-8-3.582-8-8s3.582-8,8-8h25c4.418,0,8,3.582,8,8S601.418,305,597,305z"/>
<path fill="#3D3D63" d="M597,341h-25c-4.418,0-8-3.582-8-8s3.582-8,8-8h25c4.418,0,8,3.582,8,8S601.418,341,597,341z"/>
<path fill="#3D3D63" d="M597,377h-25c-4.418,0-8-3.582-8-8s3.582-8,8-8h25c4.418,0,8,3.582,8,8S601.418,377,597,377z"/>
</svg>
